<svg width="11" height="11" viewBox="0 0 11 11" fill="none" xmlns="http://www.w3.org/2000/svg">
<path d="M8.68076 7.91508L11 10.2338L10.2338 11L7.91508 8.68076C7.05233 9.37238 5.97923 9.74855 4.87349 9.74697C2.18332 9.74697 0 7.56365 0 4.87349C0 2.18332 2.18332 0 4.87349 0C7.56365 0 9.74697 2.18332 9.74697 4.87349C9.74855 5.97923 9.37238 7.05233 8.68076 7.91508ZM7.59452 7.51329C8.28159 6.80648 8.66536 5.85921 8.66398 4.87349C8.66398 2.77951 6.96746 1.083 4.87349 1.083C2.77951 1.083 1.083 2.77951 1.083 4.87349C1.083 6.96746 2.77951 8.66398 4.87349 8.66398C5.85921 8.66536 6.80648 8.28159 7.51329 7.59452L7.59452 7.51329Z" fill="#CBD5E1"/>
</svg>
