<svg width="16" height="16" viewBox="0 0 16 16" fill="none" xmlns="http://www.w3.org/2000/svg">
<path d="M7.0126 16C6.63445 16 6.30896 15.88 6.03613 15.64C5.76331 15.4 5.5986 15.1067 5.54202 14.76L5.35294 13.44C5.17087 13.3733 4.99944 13.2933 4.83866 13.2C4.67787 13.1067 4.52017 13.0067 4.36555 12.9L3.06303 13.42C2.71288 13.5667 2.36274 13.58 2.0126 13.46C1.66246 13.34 1.38936 13.1267 1.19328 12.82L0.205882 11.18C0.0098038 10.8733 -0.0462184 10.5467 0.0378152 10.2C0.121849 9.85333 0.310924 9.56667 0.605042 9.34L1.71849 8.54C1.70448 8.44667 1.69748 8.35653 1.69748 8.2696V7.7296C1.69748 7.6432 1.70448 7.55333 1.71849 7.46L0.605042 6.66C0.310924 6.43333 0.121849 6.14667 0.0378152 5.8C-0.0462184 5.45333 0.0098038 5.12667 0.205882 4.82L1.19328 3.18C1.38936 2.87333 1.66246 2.66 2.0126 2.54C2.36274 2.42 2.71288 2.43333 3.06303 2.58L4.36555 3.1C4.51961 2.99333 4.68067 2.89333 4.84874 2.8C5.01681 2.70667 5.18487 2.62667 5.35294 2.56L5.54202 1.24C5.59804 0.893333 5.76274 0.6 6.03613 0.36C6.30952 0.12 6.63501 0 7.0126 0H8.98739C9.36555 0 9.69132 0.12 9.96471 0.36C10.2381 0.6 10.4025 0.893333 10.458 1.24L10.6471 2.56C10.8291 2.62667 11.0008 2.70667 11.1622 2.8C11.3235 2.89333 11.481 2.99333 11.6345 3.1L12.937 2.58C13.2871 2.43333 13.6373 2.42 13.9874 2.54C14.3375 2.66 14.6106 2.87333 14.8067 3.18L15.7941 4.82C15.9902 5.12667 16.0462 5.45333 15.9622 5.8C15.8782 6.14667 15.6891 6.43333 15.395 6.66L14.2815 7.46C14.2955 7.55333 14.3025 7.64347 14.3025 7.7304V8.2696C14.3025 8.35653 14.2885 8.44667 14.2605 8.54L15.3739 9.34C15.6681 9.56667 15.8571 9.85333 15.9412 10.2C16.0252 10.5467 15.9692 10.8733 15.7731 11.18L14.7647 12.82C14.5686 13.1267 14.2955 13.34 13.9454 13.46C13.5952 13.58 13.2451 13.5667 12.895 13.42L11.6345 12.9C11.4804 13.0067 11.3193 13.1067 11.1513 13.2C10.9832 13.2933 10.8151 13.3733 10.6471 13.44L10.458 14.76C10.402 15.1067 10.2375 15.4 9.96471 15.64C9.69188 15.88 9.36611 16 8.98739 16H7.0126ZM7.15966 14.4H8.81933L9.11344 12.28C9.54762 12.1733 9.95042 12.0168 10.3218 11.8104C10.6933 11.604 11.0328 11.3539 11.3403 11.06L13.4202 11.88L14.2395 10.52L12.4328 9.22C12.5028 9.03333 12.5518 8.8368 12.5798 8.6304C12.6078 8.424 12.6218 8.21387 12.6218 8C12.6218 7.78613 12.6078 7.57627 12.5798 7.3704C12.5518 7.16453 12.5028 6.96773 12.4328 6.78L14.2395 5.48L13.4202 4.12L11.3403 4.96C11.0322 4.65333 10.6927 4.3968 10.3218 4.1904C9.95098 3.984 9.54818 3.8272 9.11344 3.72L8.84034 1.6H7.18067L6.88655 3.72C6.45238 3.82667 6.04986 3.98347 5.67899 4.1904C5.30812 4.39733 4.96835 4.6472 4.65966 4.94L2.57983 4.12L1.7605 5.48L3.56723 6.76C3.4972 6.96 3.44818 7.16 3.42017 7.36C3.39216 7.56 3.37815 7.77333 3.37815 8C3.37815 8.21333 3.39216 8.42 3.42017 8.62C3.44818 8.82 3.4972 9.02 3.56723 9.22L1.7605 10.52L2.57983 11.88L4.65966 11.04C4.96779 11.3467 5.30756 11.6035 5.67899 11.8104C6.05042 12.0173 6.45294 12.1739 6.88655 12.28L7.15966 14.4ZM8.04202 10.8C8.85434 10.8 9.54762 10.5267 10.1218 9.98C10.6961 9.43333 10.9832 8.77333 10.9832 8C10.9832 7.22667 10.6961 6.56667 10.1218 6.02C9.54762 5.47333 8.85434 5.2 8.04202 5.2C7.21569 5.2 6.51905 5.47333 5.9521 6.02C5.38515 6.56667 5.1014 7.22667 5.10084 8C5.10028 8.77333 5.38403 9.43333 5.9521 9.98C6.52017 10.5267 7.21681 10.8 8.04202 10.8Z" fill="#64748B"/>
</svg>
