<svg width="185" height="44" viewBox="0 0 185 44" fill="none" xmlns="http://www.w3.org/2000/svg">
<path d="M13.2775 20.3182C14.0998 17.2499 17.2537 14.096 20.322 13.2738L39.4509 8.14741C42.5192 7.32515 44.34 9.1459 43.5177 12.2142L38.3913 31.3431C37.5691 34.4114 34.4152 37.5653 31.3469 38.3876L12.2179 43.5139C9.14964 44.3362 7.32889 42.5155 8.15116 39.4472L13.2775 20.3182Z" fill="#9E77ED"/>
<path d="M5.60884 12.6494C6.4311 9.58108 9.585 6.42718 12.6533 5.60492L31.7823 0.478547C34.8505 -0.343717 36.6713 1.47703 35.849 4.5453L30.7227 23.6743C29.9004 26.7425 26.7465 29.8964 23.6782 30.7187L4.54923 35.8451C1.48096 36.6673 -0.339793 34.8466 0.482471 31.7783L5.60884 12.6494Z" fill="#6941C6"/>
<path d="M56.8963 33V11.1818H61.5092V20.1839H70.8736V11.1818H75.4759V33H70.8736V23.9872H61.5092V33H56.8963ZM79.1939 33V16.6364H83.7322V33H79.1939ZM81.4737 14.527C80.799 14.527 80.2202 14.3033 79.7372 13.8558C79.2614 13.4013 79.0234 12.858 79.0234 12.2259C79.0234 11.6009 79.2614 11.0646 79.7372 10.6172C80.2202 10.1626 80.799 9.93537 81.4737 9.93537C82.1484 9.93537 82.7237 10.1626 83.1996 10.6172C83.6825 11.0646 83.924 11.6009 83.924 12.2259C83.924 12.858 83.6825 13.4013 83.1996 13.8558C82.7237 14.3033 82.1484 14.527 81.4737 14.527ZM87.3677 33V16.6364H91.7676V19.4915H91.938C92.2363 18.4759 92.737 17.7088 93.4402 17.1903C94.1433 16.6648 94.9529 16.402 95.8691 16.402C96.0964 16.402 96.3414 16.4162 96.6042 16.4446C96.867 16.473 97.0978 16.5121 97.2967 16.5618V20.5888C97.0836 20.5249 96.7889 20.468 96.4125 20.4183C96.036 20.3686 95.6916 20.3438 95.3791 20.3438C94.7115 20.3438 94.1149 20.4893 93.5893 20.7805C93.0708 21.0646 92.6589 21.4624 92.3535 21.9737C92.0552 22.4851 91.9061 23.0746 91.9061 23.7422V33H87.3677ZM106.339 33.3196C104.656 33.3196 103.207 32.9787 101.992 32.2969C100.785 31.608 99.8544 30.6349 99.201 29.3778C98.5476 28.1136 98.2209 26.6186 98.2209 24.8928C98.2209 23.2095 98.5476 21.7322 99.201 20.4609C99.8544 19.1896 100.774 18.1989 101.96 17.4886C103.153 16.7784 104.553 16.4233 106.158 16.4233C107.237 16.4233 108.242 16.5973 109.173 16.9453C110.11 17.2862 110.927 17.8011 111.623 18.4901C112.326 19.179 112.873 20.0455 113.263 21.0895C113.654 22.1264 113.849 23.3409 113.849 24.733V25.9794H100.032V23.1669H109.577C109.577 22.5135 109.435 21.9347 109.151 21.4304C108.867 20.9261 108.473 20.532 107.969 20.2479C107.472 19.9567 106.893 19.8111 106.232 19.8111C105.543 19.8111 104.933 19.9709 104.4 20.2905C103.874 20.603 103.462 21.0256 103.164 21.5582C102.866 22.0838 102.713 22.6697 102.706 23.3161V25.9901C102.706 26.7997 102.855 27.4993 103.153 28.0888C103.459 28.6783 103.888 29.1328 104.442 29.4524C104.996 29.772 105.653 29.9318 106.413 29.9318C106.918 29.9318 107.379 29.8608 107.798 29.7188C108.217 29.5767 108.576 29.3636 108.874 29.0795C109.173 28.7955 109.4 28.4474 109.556 28.0355L113.754 28.3125C113.54 29.321 113.104 30.2017 112.443 30.9545C111.79 31.7003 110.945 32.2827 109.908 32.7017C108.878 33.1136 107.688 33.3196 106.339 33.3196ZM116.896 33V11.1818H131.342V14.9851H121.509V20.1839H130.384V23.9872H121.509V33H116.896ZM138.898 11.1818V33H134.36V11.1818H138.898ZM149.927 33.3196C148.272 33.3196 146.841 32.968 145.634 32.2649C144.434 31.5547 143.507 30.5675 142.853 29.3033C142.2 28.032 141.873 26.5582 141.873 24.8821C141.873 23.1918 142.2 21.7145 142.853 20.4503C143.507 19.179 144.434 18.1918 145.634 17.4886C146.841 16.7784 148.272 16.4233 149.927 16.4233C151.582 16.4233 153.01 16.7784 154.21 17.4886C155.417 18.1918 156.348 19.179 157.001 20.4503C157.654 21.7145 157.981 23.1918 157.981 24.8821C157.981 26.5582 157.654 28.032 157.001 29.3033C156.348 30.5675 155.417 31.5547 154.21 32.2649C153.01 32.968 151.582 33.3196 149.927 33.3196ZM149.949 29.804C150.701 29.804 151.33 29.5909 151.834 29.1648C152.338 28.7315 152.718 28.142 152.974 27.3963C153.237 26.6506 153.368 25.8018 153.368 24.8501C153.368 23.8984 153.237 23.0497 152.974 22.304C152.718 21.5582 152.338 20.9687 151.834 20.5355C151.33 20.1023 150.701 19.8857 149.949 19.8857C149.189 19.8857 148.549 20.1023 148.031 20.5355C147.52 20.9687 147.132 21.5582 146.87 22.304C146.614 23.0497 146.486 23.8984 146.486 24.8501C146.486 25.8018 146.614 26.6506 146.87 27.3963C147.132 28.142 147.52 28.7315 148.031 29.1648C148.549 29.5909 149.189 29.804 149.949 29.804ZM163.75 33L159.297 16.6364H163.888L166.424 27.6307H166.573L169.215 16.6364H173.722L176.406 27.5668H176.545L179.038 16.6364H183.619L179.176 33H174.371L171.559 22.7088H171.357L168.544 33H163.75Z" fill="#181D27"/>
</svg>
