<svg width="14" height="14" viewBox="0 0 14 14" fill="none" xmlns="http://www.w3.org/2000/svg">
<path d="M7.77778 3.88889V0.777778C7.77778 0.557407 7.85244 0.372815 8.00178 0.224C8.15111 0.0751852 8.3357 0.000518518 8.55555 0H13.2222C13.4426 0 13.6274 0.0746667 13.7768 0.224C13.9261 0.373333 14.0005 0.557926 14 0.777778V3.88889C14 4.10926 13.9253 4.29411 13.776 4.44344C13.6267 4.59278 13.4421 4.66718 13.2222 4.66667H8.55555C8.33518 4.66667 8.15059 4.592 8.00178 4.44267C7.85296 4.29333 7.77829 4.10874 7.77778 3.88889ZM0 7V0.777778C0 0.557407 0.0746667 0.372815 0.224 0.224C0.373333 0.0751852 0.557926 0.000518518 0.777778 0H5.44444C5.66481 0 5.84967 0.0746667 5.999 0.224C6.14833 0.373333 6.22274 0.557926 6.22222 0.777778V7C6.22222 7.22037 6.14755 7.40522 5.99822 7.55455C5.84889 7.70389 5.6643 7.77829 5.44444 7.77778H0.777778C0.557407 7.77778 0.372815 7.70311 0.224 7.55378C0.0751852 7.40444 0.000518518 7.21985 0 7ZM7.77778 13.2222V7C7.77778 6.77963 7.85244 6.59504 8.00178 6.44622C8.15111 6.29741 8.3357 6.22274 8.55555 6.22222H13.2222C13.4426 6.22222 13.6274 6.29689 13.7768 6.44622C13.9261 6.59555 14.0005 6.78015 14 7V13.2222C14 13.4426 13.9253 13.6274 13.776 13.7768C13.6267 13.9261 13.4421 14.0005 13.2222 14H8.55555C8.33518 14 8.15059 13.9253 8.00178 13.776C7.85296 13.6267 7.77829 13.4421 7.77778 13.2222ZM0 13.2222V10.1111C0 9.89074 0.0746667 9.70615 0.224 9.55733C0.373333 9.40852 0.557926 9.33385 0.777778 9.33333H5.44444C5.66481 9.33333 5.84967 9.408 5.999 9.55733C6.14833 9.70666 6.22274 9.89126 6.22222 10.1111V13.2222C6.22222 13.4426 6.14755 13.6274 5.99822 13.7768C5.84889 13.9261 5.6643 14.0005 5.44444 14H0.777778C0.557407 14 0.372815 13.9253 0.224 13.776C0.0751852 13.6267 0.000518518 13.4421 0 13.2222ZM1.55556 6.22222H4.66667V1.55556H1.55556V6.22222ZM9.33333 12.4444H12.4444V7.77778H9.33333V12.4444ZM9.33333 3.11111H12.4444V1.55556H9.33333V3.11111ZM1.55556 12.4444H4.66667V10.8889H1.55556V12.4444Z" fill="#FDFDFD"/>
</svg>
