<svg width="33" height="33" viewBox="0 0 33 33" fill="none" xmlns="http://www.w3.org/2000/svg">
<path d="M33 16.5V29.3333C33 30.3058 32.6137 31.2384 31.9261 31.9261C31.2384 32.6137 30.3058 33 29.3333 33H3.66667C2.69421 33 1.76158 32.6137 1.07394 31.9261C0.386308 31.2384 0 30.3058 0 29.3333V16.5H33ZM23.8333 0C24.3196 0 24.7859 0.193154 25.1297 0.536971C25.4735 0.880788 25.6667 1.3471 25.6667 1.83333V3.66667H29.3333C30.3058 3.66667 31.2384 4.05298 31.9261 4.74061C32.6137 5.42824 33 6.36087 33 7.33333V12.8333H0V7.33333C0 6.36087 0.386308 5.42824 1.07394 4.74061C1.76158 4.05298 2.69421 3.66667 3.66667 3.66667H7.33333V1.83333C7.33333 1.3471 7.52649 0.880788 7.8703 0.536971C8.21412 0.193154 8.68044 0 9.16667 0C9.6529 0 10.1192 0.193154 10.463 0.536971C10.8068 0.880788 11 1.3471 11 1.83333V3.66667H22V1.83333C22 1.3471 22.1932 0.880788 22.537 0.536971C22.8808 0.193154 23.3471 0 23.8333 0Z" fill="#B692F6"/>
</svg>
