<svg width="20" height="16" viewBox="0 0 20 16" fill="none" xmlns="http://www.w3.org/2000/svg">
<path d="M16.25 14.5V15H3.25V14.5H16.25ZM1.07422 13.25C1.24234 13.8139 1.68612 14.2577 2.25 14.4258V14.9404C1.84037 14.8469 1.46103 14.6427 1.15918 14.3408C0.857276 14.0389 0.652085 13.6597 0.558594 13.25H1.07422ZM18.9414 13.25C18.8479 13.6597 18.6427 14.0389 18.3408 14.3408C18.039 14.6427 17.6596 14.8469 17.25 14.9404V14.4258C17.8139 14.2577 18.2577 13.8139 18.4258 13.25H18.9414ZM19 2V12.25H18.5V2H19ZM1 2V12.25H0.5V2H1ZM17.5 0.5V1H2V0.5H17.5Z" fill="black" stroke="#A4A7AE"/>
<path d="M0.75 0.75L9.75 9.75L18.75 0.75" stroke="#A4A7AE" stroke-width="1.5" stroke-linecap="round" stroke-linejoin="round"/>
</svg>
