<svg width="20" height="19" viewBox="0 0 20 19" fill="none" xmlns="http://www.w3.org/2000/svg">
<path d="M13.3802 12.6411L13.8362 12.1881L12.7772 11.1241L12.3232 11.5771L13.3802 12.6411ZM15.3652 11.9981L17.2762 13.0371L17.9912 11.7191L16.0812 10.6811L15.3652 11.9981ZM17.6432 15.1011L16.2232 16.5141L17.2802 17.5771L18.7002 16.1651L17.6432 15.1011ZM15.3572 16.9681C13.9072 17.1041 10.1572 16.9831 6.09517 12.9451L5.03717 14.0081C9.46917 18.4151 13.6882 18.6311 15.4972 18.4621L15.3572 16.9681ZM6.09517 12.9451C2.22417 9.09506 1.58217 5.85806 1.50217 4.45306L0.00417335 4.53806C0.104173 6.30606 0.899174 9.89406 5.03717 14.0081L6.09517 12.9451ZM7.47017 6.76506L7.75717 6.47906L6.70117 5.41606L6.41417 5.70106L7.47017 6.76506ZM7.98517 2.84406L6.72517 1.16006L5.52417 2.06006L6.78417 3.74306L7.98517 2.84406ZM2.48417 0.793056L0.914173 2.35306L1.97217 3.41706L3.54117 1.85706L2.48417 0.793056ZM6.94217 6.23306C6.41217 5.70106 6.41217 5.70106 6.41217 5.70306H6.41017L6.40717 5.70706C6.35965 5.75497 6.3171 5.80757 6.28017 5.86406C6.22617 5.94406 6.16717 6.04906 6.11717 6.18206C5.99545 6.52538 5.96512 6.89447 6.02917 7.25306C6.16317 8.11806 6.75917 9.26106 8.28517 10.7791L9.34317 9.71506C7.91417 8.29506 7.57417 7.43106 7.51117 7.02306C7.48117 6.82906 7.51217 6.73306 7.52117 6.71106C7.52717 6.69772 7.52717 6.69572 7.52117 6.70506C7.51226 6.71885 7.50222 6.7319 7.49117 6.74406L7.48117 6.75406L7.47117 6.76305L6.94217 6.23306ZM8.28517 10.7791C9.81217 12.2971 10.9612 12.8891 11.8272 13.0211C12.2702 13.0891 12.6272 13.0351 12.8982 12.9341C13.05 12.8785 13.1918 12.7988 13.3182 12.6981L13.3682 12.6531L13.3752 12.6471L13.3782 12.6441L13.3792 12.6421C13.3792 12.6421 13.3802 12.6411 12.8512 12.1091C12.3212 11.5771 12.3242 11.5761 12.3242 11.5761L12.3262 11.5741L12.3282 11.5721L12.3342 11.5671L12.3442 11.5571L12.3822 11.5271C12.3915 11.5211 12.3892 11.5217 12.3752 11.5291C12.3502 11.5381 12.2522 11.5691 12.0552 11.5391C11.6412 11.4751 10.7712 11.1351 9.34317 9.71506L8.28517 10.7791ZM6.72517 1.15906C5.70517 -0.200945 3.70117 -0.416945 2.48417 0.793056L3.54117 1.85706C4.07317 1.32806 5.01717 1.38306 5.52417 2.06006L6.72517 1.15906ZM1.50317 4.45406C1.48317 4.10806 1.64217 3.74606 1.97217 3.41806L0.913173 2.35406C0.376173 2.88806 -0.0468267 3.64406 0.00417335 4.53806L1.50317 4.45406ZM16.2232 16.5141C15.9492 16.7881 15.6532 16.9421 15.3582 16.9691L15.4972 18.4621C16.2322 18.3931 16.8332 18.0231 17.2812 17.5781L16.2232 16.5141ZM7.75717 6.47906C8.74217 5.50006 8.81517 3.95306 7.98617 2.84506L6.78517 3.74406C7.18817 4.28306 7.12817 4.99006 6.70017 5.41706L7.75717 6.47906ZM17.2772 13.0381C18.0942 13.4821 18.2212 14.5281 17.6442 15.1021L18.7022 16.1651C20.0422 14.8321 19.6292 12.6091 17.9922 11.7201L17.2772 13.0381ZM13.8362 12.1891C14.2202 11.8071 14.8382 11.7131 15.3662 11.9991L16.0822 10.6821C14.9982 10.0921 13.6542 10.2551 12.7782 11.1251L13.8362 12.1891Z" fill="#A4A7AE"/>
</svg>
