<svg width="50" height="38" viewBox="0 0 50 38" fill="none" xmlns="http://www.w3.org/2000/svg">
<path d="M21.5313 37.1429C21.5313 37.1429 18.4554 37.1429 18.4554 34.0476C18.4554 30.9524 21.5313 21.6667 33.8348 21.6667C46.1384 21.6667 49.2143 30.9524 49.2143 34.0476C49.2143 37.1429 46.1384 37.1429 46.1384 37.1429H21.5313ZM33.8348 18.5714C36.2822 18.5714 38.6293 17.5931 40.3598 15.8517C42.0903 14.1103 43.0625 11.7484 43.0625 9.28571C43.0625 6.82299 42.0903 4.46113 40.3598 2.71972C38.6293 0.978314 36.2822 0 33.8348 0C31.3875 0 29.0404 0.978314 27.3099 2.71972C25.5793 4.46113 24.6071 6.82299 24.6071 9.28571C24.6071 11.7484 25.5793 14.1103 27.3099 15.8517C29.0404 17.5931 31.3875 18.5714 33.8348 18.5714ZM16.0439 37.1429C15.5881 36.1765 15.3607 35.1171 15.3795 34.0476C15.3795 29.8536 17.4711 25.5357 21.3344 22.5333C19.4064 21.9342 17.3972 21.6418 15.3795 21.6667C3.07589 21.6667 0 30.9524 0 34.0476C0 37.1429 3.07589 37.1429 3.07589 37.1429H16.0439ZM13.8415 18.5714C15.881 18.5714 17.8369 17.7562 19.279 16.305C20.7211 14.8538 21.5313 12.8856 21.5313 10.8333C21.5313 8.78106 20.7211 6.81285 19.279 5.36167C17.8369 3.9105 15.881 3.09524 13.8415 3.09524C11.8021 3.09524 9.84616 3.9105 8.40406 5.36167C6.96195 6.81285 6.15179 8.78106 6.15179 10.8333C6.15179 12.8856 6.96195 14.8538 8.40406 16.305C9.84616 17.7562 11.8021 18.5714 13.8415 18.5714Z" fill="#9E77ED"/>
</svg>
