<svg width="16" height="16" viewBox="0 0 16 16" fill="none" xmlns="http://www.w3.org/2000/svg">
<path d="M6.85253 0V9.25293H9.14747V0H6.85253ZM2.34277 2.34277C0.895053 3.79049 0 5.79085 0 8C0 12.4183 3.58172 16 8 16C12.4183 16 16 12.4183 16 8C16 5.79085 15.1049 3.79049 13.6572 2.34277L12.0459 3.95411C13.0814 4.98955 13.7217 6.42013 13.7217 8C13.7217 11.1597 11.1597 13.7217 8 13.7217C4.84025 13.7217 2.27832 11.1597 2.27832 8C2.27832 6.42013 2.91865 4.98955 3.95411 3.95411L2.34277 2.34277Z" fill="#717680"/>
</svg>
