<svg width="48" height="48" viewBox="0 0 48 48" fill="none" xmlns="http://www.w3.org/2000/svg">
<path d="M16.5019 22.5543C17.2087 19.9168 19.9198 17.2058 22.5573 16.4989L39.0006 12.0923C41.638 11.3855 43.2032 12.9506 42.4963 15.5881L38.0897 32.0313C37.3829 34.6688 34.6718 37.3799 32.0343 38.0867L15.5911 42.4934C12.9536 43.2002 11.3885 41.6351 12.0953 38.9976L16.5019 22.5543Z" fill="#9E77ED"/>
<path d="M9.91062 15.9622C10.6174 13.3247 13.3285 10.6137 15.966 9.90684L32.4093 5.50022C35.0468 4.7934 36.6119 6.35851 35.9051 8.99599L31.4984 25.4392C30.7916 28.0767 28.0805 30.7878 25.443 31.4946L8.99978 35.9012C6.3623 36.6081 4.79719 35.043 5.504 32.4055L9.91062 15.9622Z" fill="#6941C6"/>
</svg>
