<svg width="27" height="30" viewBox="0 0 27 30" fill="none" xmlns="http://www.w3.org/2000/svg">
<path d="M18.1922 19.8211C21.3844 14.8119 20.983 15.4371 21.075 15.3094C22.2348 13.6792 22.8559 11.7272 22.8516 9.72656C22.8516 4.39453 18.5238 0 13.1836 0C7.86094 0 3.51562 4.38457 3.51562 9.72656C3.51521 11.7557 4.15472 13.7333 5.34316 15.3779L8.175 19.8217C5.14746 20.2869 0 21.6732 0 24.7266C0 25.8398 0.726562 27.426 4.18711 28.6617C6.60352 29.5248 9.79863 30 13.1836 30C19.5117 30 26.3672 28.2146 26.3672 24.7266C26.3672 21.6727 21.2262 20.2875 18.1922 19.8211ZM6.81152 14.4141C6.80156 14.3988 6.7916 14.3836 6.78105 14.3695C5.80014 13.0203 5.2723 11.3947 5.27344 9.72656C5.27344 5.33203 8.81309 1.75781 13.1836 1.75781C17.5453 1.75781 21.0938 5.33203 21.0938 9.72656C21.0969 11.3568 20.5921 12.9475 19.6494 14.2775C19.565 14.3895 20.0068 13.7027 13.1836 24.4096L6.81152 14.4141ZM13.1836 28.2422C6.26953 28.2422 1.75781 26.2102 1.75781 24.7266C1.75781 23.7305 4.07637 22.0898 9.21387 21.4512L12.4424 26.5172C12.5218 26.6418 12.6313 26.7444 12.7609 26.8155C12.8904 26.8865 13.0358 26.9238 13.1836 26.9238C13.3314 26.9238 13.4767 26.8865 13.6063 26.8155C13.7359 26.7444 13.8454 26.6418 13.9248 26.5172L17.1533 21.4512C22.2908 22.0898 24.6094 23.7305 24.6094 24.7266C24.6094 26.1973 20.1381 28.2422 13.1836 28.2422ZM17.5781 9.72656C17.5781 8.85741 17.3204 8.00777 16.8375 7.28509C16.3546 6.56241 15.6683 5.99916 14.8653 5.66655C14.0623 5.33393 13.1787 5.24691 12.3263 5.41647C11.4738 5.58603 10.6908 6.00457 10.0762 6.61916C9.4616 7.23375 9.04307 8.01678 8.8735 8.86923C8.70394 9.72169 8.79096 10.6053 9.12358 11.4083C9.45619 12.2113 10.0194 12.8976 10.7421 13.3805C11.4648 13.8634 12.3144 14.1211 13.1836 14.1211C14.3487 14.1197 15.4656 13.6563 16.2895 12.8324C17.1133 12.0086 17.5767 10.8916 17.5781 9.72656ZM10.5469 9.72656C10.5469 9.20507 10.7015 8.69529 10.9912 8.26168C11.281 7.82807 11.6928 7.49012 12.1746 7.29055C12.6564 7.09099 13.1865 7.03877 13.698 7.14051C14.2095 7.24225 14.6793 7.49337 15.048 7.86212C15.4168 8.23087 15.6679 8.70069 15.7696 9.21216C15.8714 9.72364 15.8192 10.2538 15.6196 10.7356C15.42 11.2174 15.0821 11.6292 14.6485 11.9189C14.2149 12.2086 13.7051 12.3633 13.1836 12.3633C12.4845 12.3625 11.8143 12.0845 11.32 11.5901C10.8257 11.0958 10.5477 10.4256 10.5469 9.72656Z" fill="#858585"/>
</svg>
