<svg width="40" height="56" viewBox="0 0 40 56" fill="none" xmlns="http://www.w3.org/2000/svg">
<path d="M33.6538 35.895C33.4203 36.0156 33.1655 36.0889 32.9037 36.1109C32.6419 36.1329 32.3784 36.1032 32.1281 36.0233C31.8778 35.9434 31.6457 35.8151 31.4451 35.6455C31.2445 35.4759 31.0792 35.2685 30.9588 35.035L23.11 19.8238C21.0175 15.77 16.5238 13.9125 13.0963 15.685C9.42 17.56 8.72125 22.685 10.6688 26.2438L18.5187 41.455C18.9752 42.5342 19.8319 43.3947 20.9091 43.8559C21.9863 44.3171 23.2002 44.3432 24.2962 43.9288C25.2765 43.2819 25.9645 42.277 26.2129 41.1291C26.4612 39.9812 26.2502 38.7817 25.625 37.7875L17.7787 22.575C17.6666 22.274 17.4469 22.0251 17.162 21.8764C16.8772 21.7278 16.5474 21.6899 16.2362 21.77C15.9904 21.9768 15.8302 22.2675 15.7865 22.5858C15.7429 22.904 15.8189 23.2272 16 23.4925L23.85 38.7038C24.0963 39.1737 24.1459 39.7222 23.9878 40.2287C23.8296 40.7352 23.4768 41.1581 23.0069 41.4044C22.5369 41.6507 21.9884 41.7003 21.4819 41.5422C20.9755 41.384 20.5526 41.0312 20.3063 40.5613L20.295 40.5375L12.445 25.3275C11.7703 24.1229 11.5973 22.701 11.9635 21.3698C12.3296 20.0386 13.2054 18.9052 14.4013 18.215C15.6557 17.6352 17.0885 17.5753 18.387 18.0484C19.6854 18.5215 20.7439 19.4891 21.3312 20.74L29.18 35.9525C30.2958 37.8882 30.6013 40.1864 30.03 42.3463C29.4587 44.5063 28.0569 46.3529 26.13 47.4838C24.0911 48.3952 21.7751 48.4659 19.6844 47.6806C17.5937 46.8952 15.8971 45.3172 14.9625 43.2888L7.1125 28.0775C4.14 22.6313 5.625 14.9363 11.2625 12.125C16.65 9.34503 23.5625 11.9738 26.665 17.985L34.5137 33.1963C34.7568 33.6676 34.8027 34.2161 34.6414 34.7212C34.4802 35.2263 34.1249 35.6468 33.6538 35.89V35.895ZM40 13.6575V50C39.9983 51.5908 39.3657 53.116 38.2408 54.2408C37.116 55.3657 35.5908 55.9984 34 56H6C4.40921 55.9984 2.88405 55.3657 1.75919 54.2408C0.634327 53.116 0.00165449 51.5908 0 50V6.00003C0.00165449 4.40923 0.634327 2.88407 1.75919 1.75921C2.88405 0.634353 4.40921 0.00168032 6 2.58261e-05H26.3425C27.131 -0.00229519 27.912 0.15185 28.6405 0.453532C29.3689 0.755214 30.0303 1.19844 30.5863 1.75753L38.2425 9.41378C38.8016 9.96973 39.2448 10.6311 39.5465 11.3595C39.8482 12.088 40.0023 12.8691 40 13.6575ZM28 4.82753V10C28 10.5305 28.2107 11.0392 28.5858 11.4142C28.9609 11.7893 29.4696 12 30 12H35.1725L28 4.82753ZM36 50V16H30C28.4092 15.9984 26.884 15.3657 25.7592 14.2408C24.6343 13.116 24.0017 11.5908 24 10V4.00003H6C5.46957 4.00003 4.96086 4.21074 4.58579 4.58581C4.21071 4.96089 4 5.46959 4 6.00003V50C4 50.5305 4.21071 51.0392 4.58579 51.4142C4.96086 51.7893 5.46957 52 6 52H34C34.5304 52 35.0391 51.7893 35.4142 51.4142C35.7893 51.0392 36 50.5305 36 50Z" fill="#858585"/>
</svg>
