<svg width="48" height="25" viewBox="0 0 48 25" fill="none" xmlns="http://www.w3.org/2000/svg">
<path d="M36.3759 2.72818C35.8259 2.72832 35.2767 2.76863 34.7325 2.84882C31.6629 1.00776 27.7979 0 23.7558 0C19.7136 0 15.8487 1.00776 12.779 2.84882C12.2349 2.76863 11.6856 2.72832 11.1356 2.72818C9.01255 2.72815 6.93374 3.33504 5.14418 4.47732C3.35461 5.6196 1.92889 7.24965 1.03504 9.17537C0.141189 11.1011 -0.183527 13.2422 0.0991601 15.3463C0.381847 17.4505 1.26016 19.43 2.63057 21.0515C4.00098 22.673 5.80637 23.8689 7.83396 24.4984C9.86155 25.1278 12.0268 25.1646 14.0746 24.6042C16.1224 24.0438 17.9672 22.9097 19.3918 21.3356C20.8164 19.7615 21.7613 17.8129 22.1151 15.7195H25.3964C25.7502 17.8129 26.6951 19.7615 28.1197 21.3356C29.5443 22.9097 31.3892 24.0438 33.4369 24.6042C35.4847 25.1646 37.65 25.1278 39.6776 24.4984C41.7052 23.8689 43.5106 22.673 44.881 21.0515C46.2514 19.43 47.1297 17.4505 47.4124 15.3463C47.6951 13.2422 47.3703 11.1011 46.4765 9.17537C45.5827 7.24965 44.1569 5.6196 42.3674 4.47732C40.5778 3.33504 38.499 2.72815 36.3759 2.72818ZM11.1356 21.2873C9.66734 21.2873 8.23206 20.8519 7.01125 20.0361C5.79044 19.2204 4.83894 18.061 4.27706 16.7045C3.71518 15.348 3.56817 13.8554 3.85461 12.4153C4.14105 10.9753 4.84809 9.65254 5.8863 8.61433C6.92451 7.57612 8.24728 6.86908 9.68732 6.58264C11.1274 6.2962 12.62 6.44321 13.9765 7.00509C15.333 7.56697 16.4924 8.51847 17.3081 9.73928C18.1238 10.9601 18.5592 12.3954 18.5592 13.8636C18.557 15.8318 17.7742 17.7188 16.3825 19.1105C14.9907 20.5022 13.1038 21.285 11.1356 21.2873ZM25.3973 12.0077H22.1142C21.8668 10.5488 21.3315 9.15375 20.5393 7.90389C19.7472 6.65404 18.7141 5.57439 17.5004 4.72792C21.5607 3.37332 25.9509 3.37332 30.0111 4.72792C28.7974 5.57436 27.7643 6.65399 26.9721 7.90385C26.18 9.15372 25.6447 10.5488 25.3973 12.0077ZM36.3759 21.2873C34.9077 21.2873 33.4724 20.8519 32.2516 20.0361C31.0308 19.2204 30.0793 18.061 29.5174 16.7045C28.9555 15.348 28.8085 13.8554 29.095 12.4153C29.3814 10.9753 30.0884 9.65254 31.1266 8.61433C32.1649 7.57612 33.4876 6.86908 34.9277 6.58264C36.3677 6.2962 37.8603 6.44321 39.2168 7.00509C40.5733 7.56697 41.7327 8.51847 42.5485 9.73928C43.3642 10.9601 43.7996 12.3954 43.7996 13.8636C43.7974 15.8318 43.0145 17.7188 41.6228 19.1105C40.2311 20.5022 38.3441 21.285 36.3759 21.2873Z" fill="#858585"/>
</svg>
