<?xml version="1.0" encoding="utf-8"?>
<!-- Generator: Adobe Illustrator 25.4.1, SVG Export Plug-In . SVG Version: 6.00 Build 0)  -->
<svg version="1.1" id="Icons" xmlns="http://www.w3.org/2000/svg" xmlns:xlink="http://www.w3.org/1999/xlink" x="0px" y="0px"
	 viewBox="0 0 100 111.1" style="enable-background:new 0 0 100 111.1;" xml:space="preserve">
<style type="text/css">
	.st0{fill:#FFFFFF;}
</style>
<g>
	<path class="st0" d="M0,11.1v77.8C0,95,5,100,11.1,100h9.6c-0.9,3,0,6.3,2.3,8.5c3.5,3.5,9.2,3.4,12.6-0.1c0.1-0.1,0.1-0.1,0.2-0.2
		l7.7-8.2h14.7l9.3,9.5c2.2,2.1,5.7,2.1,7.9,0l2.6-2.6c1.8-1.8,2.1-4.7,0.8-6.9h10.1c6.1,0,11.1-5,11.1-11.1V11.1C100,5,95,0,88.9,0
		H11.1C5,0,0,5,0,11.1z M33,105.7c-1.9,2.1-5.1,2.3-7.3,0.4s-2.3-5.1-0.4-7.3c0.1-0.2,0.3-0.3,0.5-0.5l17.3-16.3l5,5
		c-0.2,0.8-0.1,1.7,0.2,2.5L33,105.7z M26.7,74.1c-0.5,0.5-0.7,1.2-0.4,1.9l0.8,2.4l-2.5,2.6l-7.9-7.9l2.5-2.5l2.4,0.8
		c0.7,0.2,1.4,0.1,1.9-0.4l2.3-2.3c0.7-0.7,0.7-1.9,0-2.6c-0.6-0.6-0.6-1.4,0-2c0,0,0,0,0,0l9.3-9.3c2.6-2.6,5.9-4.2,9.5-4.5
		c-1.7,1.3-3.4,2.7-4.9,4.1c-1.1,0.9-1.7,2.3-1.7,3.7c0,1.4,0.5,2.8,1.5,3.8l1.1,1.1c0.5,0.6,0.5,1.5,0,2l-7,7
		c-0.3,0.3-0.6,0.4-1,0.4c-0.4,0-0.7-0.1-1-0.4c-0.7-0.7-1.9-0.7-2.6,0L26.7,74.1z M41,69.6l11.9,11.9l-2.6,2.6L38.4,72.2L41,69.6z
		 M57.8,66.6c-2-4.8-0.9-10.4,2.8-14.1c3-2.9,7-4.5,11.1-4.4c0.2,0,0.4,0.1,0.5,0.3c0.1,0.2,0,0.3-0.1,0.4l-6.2,6.2
		c-0.8,0.8-1.3,1.9-1.3,3.1v4.3c0,2.4,2,4.4,4.4,4.4h4.3c1.2,0,2.3-0.5,3.1-1.3l6.2-6.2c0.1-0.1,0.3-0.2,0.5-0.1
		c0.1,0,0.2,0.2,0.2,0.3c0.2,4.2-1.4,8.3-4.3,11.3c-3.7,3.7-9.3,4.8-14.1,2.8c-0.7-0.3-1.5-0.1-2.1,0.4l-4.9,5.2
		c-0.7-0.2-1.4-0.2-2.1,0l-4.7-4.7l6.2-5.8C57.9,68.2,58.1,67.3,57.8,66.6L57.8,66.6z M47,96.3l3.7-3.9l3.9,3.9H47z M75.4,104.2
		l-2.6,2.6c-0.7,0.7-1.9,0.7-2.6,0L51.6,88l5.2-5.2l0,0l18.5,18.8C76.1,102.3,76.1,103.5,75.4,104.2
		C75.4,104.2,75.4,104.2,75.4,104.2z M88.9,96.3H75.3L60.9,81.6l3.8-4c6,2,12.5,0.4,16.9-4.1c3.7-3.8,5.6-8.9,5.4-14.1
		c-0.1-1.6-1.1-3-2.6-3.6c-1.5-0.6-3.3-0.2-4.5,0.9L73.7,63c-0.1,0.1-0.3,0.2-0.5,0.2H69c-0.4,0-0.7-0.3-0.7-0.7v-4.3
		c0-0.2,0.1-0.3,0.2-0.5l6.2-6.3c1.2-1.1,1.5-2.9,0.9-4.4c-0.6-1.6-2.1-2.6-3.7-2.7c-5.2-0.1-10.2,1.8-13.9,5.4
		c-4.4,4.4-6,11-4.1,16.9l-5.4,5.1l-5-5c1.6-2,1.5-5-0.4-6.8L42.2,59c-0.3-0.3-0.4-0.7-0.4-1.1c0-0.4,0.2-0.8,0.5-1
		c2-1.8,4.1-3.5,6.2-5c1.1-0.8,1.6-2.2,1.2-3.5c-0.4-1.3-1.6-2.1-2.9-2.1c-5.3-0.1-10.4,2-14.2,5.7l-9.2,9.3
		c-1.5,1.5-1.9,3.8-1.1,5.7l-0.4,0.4L20.3,67c-1.3-0.4-2.7-0.1-3.6,0.8L14,70.6c-1.4,1.4-1.4,3.6,0,4.9l8.1,8.1c1.4,1.4,3.6,1.4,5,0
		l2.8-2.8c0.9-0.9,1.2-2.3,0.8-3.6l-0.5-1.4l0.5-0.5c0.7,0.3,1.4,0.4,2.1,0.4c1.1,0,2.2-0.4,3.1-1.1l4.7,4.7L23.3,95.7
		c-0.2,0.2-0.4,0.4-0.6,0.6H11.1c-4.1,0-7.4-3.3-7.4-7.4V18.5h92.6v70.4C96.3,93,93,96.3,88.9,96.3z M11.1,3.7h77.8
		c4.1,0,7.4,3.3,7.4,7.4v3.7H3.7v-3.7C3.7,7,7,3.7,11.1,3.7z"/>
	<path class="st0" d="M11.1,11.1H13c1,0,1.9-0.8,1.9-1.9S14,7.4,13,7.4h-1.9c-1,0-1.9,0.8-1.9,1.9S10.1,11.1,11.1,11.1z"/>
	<path class="st0" d="M20.4,11.1h1.9c1,0,1.9-0.8,1.9-1.9s-0.8-1.9-1.9-1.9h-1.9c-1,0-1.9,0.8-1.9,1.9S19.3,11.1,20.4,11.1z"/>
	<path class="st0" d="M29.6,11.1h1.9c1,0,1.9-0.8,1.9-1.9s-0.8-1.9-1.9-1.9h-1.9c-1,0-1.9,0.8-1.9,1.9S28.6,11.1,29.6,11.1z"/>
	<path class="st0" d="M50,11.1h29.6c1,0,1.9-0.8,1.9-1.9s-0.8-1.9-1.9-1.9H50c-1,0-1.9,0.8-1.9,1.9S49,11.1,50,11.1z"/>
	<path class="st0" d="M40.4,26.7c-0.6-0.8-1.8-1-2.6-0.4l-7.4,5.6c-0.8,0.6-1,1.8-0.4,2.6c0.1,0.1,0.2,0.3,0.4,0.4l7.4,5.6
		c0.8,0.6,2,0.4,2.6-0.4c0.6-0.8,0.4-2-0.4-2.6l0,0l-5.4-4.1l5.4-4.1C40.8,28.6,41,27.5,40.4,26.7L40.4,26.7z"/>
	<path class="st0" d="M62.2,26.3c-0.8-0.6-2-0.4-2.6,0.4s-0.4,2,0.4,2.6l5.4,4.1L60,37.4c-0.8,0.6-1,1.8-0.4,2.6
		c0.6,0.8,1.8,1,2.6,0.4l0,0l7.4-5.6c0.8-0.6,1-1.8,0.4-2.6c-0.1-0.1-0.2-0.3-0.4-0.4L62.2,26.3z"/>
	<path class="st0" d="M52.3,24.1c-1-0.2-2,0.4-2.2,1.3l-3.7,14.8c-0.2,1,0.4,2,1.3,2.2c0.1,0,0.3,0.1,0.4,0.1c0.8,0,1.6-0.6,1.8-1.4
		l3.7-14.8C53.9,25.4,53.3,24.4,52.3,24.1z"/>
</g>
</svg>
