<?xml version="1.0" encoding="utf-8"?>
<!-- Generator: Adobe Illustrator 25.4.1, SVG Export Plug-In . SVG Version: 6.00 Build 0)  -->
<svg version="1.1" id="Layer_1" xmlns="http://www.w3.org/2000/svg" xmlns:xlink="http://www.w3.org/1999/xlink" x="0px" y="0px"
	 viewBox="0 0 101 76" style="enable-background:new 0 0 101 76;" xml:space="preserve">
<style type="text/css">
	.st0{fill:#FFFFFF;}
</style>
<path class="st0" d="M71.4,63.4c-0.3,0-0.4-0.1-0.4-0.1c0-0.1,0-0.2,0-0.3c0-0.1,0-0.2,0-0.3v-0.1c0.1-1.4-0.3-2.8-1.2-4
	c-0.9-1.1-2.1-1.9-3.5-2.2c-0.2-0.1-0.2-0.1-0.2-0.2c-0.1-1.4-0.2-2.9-0.3-4.3l-0.1-1.2c-0.1-0.7-0.2-2.8-0.4-5.5
	c-0.5-5.9-1.2-14.7-1.4-16.8c0-0.2,0-0.2,0-0.2s0,0,0.2-0.1c0.7-0.1,1.3-0.5,1.7-1.1c0.4-0.6,0.6-1.2,0.6-1.9V24c0-0.6,0-1.3,0-1.9
	c0.1-0.6,0-1.2-0.3-1.8c-0.3-0.6-0.6-1-1.1-1.4l1-1c1.1-1.1,2.2-2.1,3.2-3.2c0.2-0.2,0.4-0.5,0.6-0.8c0.1-0.3,0.2-0.6,0.2-1
	c0-4.1,0-7.7,0-11.1c0-0.3,0-0.7-0.2-1s-0.4-0.6-0.7-0.8L69,0h-8.6h-0.1c-0.3,0.2-0.5,0.5-0.7,0.8c-0.2,0.3-0.2,0.7-0.2,1.1
	c0,1.1,0,2.2,0,3.3s0,2.3,0,3.5c0,0.3,0,0.3,0,0.4c-0.1,0-0.1,0-0.2,0h-0.1c-0.3,0-0.7,0-1.1,0h-1.1h-0.1c-0.2,0-0.2,0-0.2,0
	c0,0-0.1-0.1-0.1-0.4c0-1.2,0-2.4,0-3.6s0-2.2,0-3.3c0-0.4,0-0.7-0.2-1c-0.2-0.3-0.4-0.6-0.7-0.8h-0.1H45.5l-0.1,0.1
	c-0.3,0.2-0.5,0.5-0.7,0.8c-0.1,0.3-0.2,0.7-0.2,1.1c0,1.1,0,2.2,0,3.3s0,2.4,0,3.6c0,0.3,0,0.3,0,0.3c0,0,0,0-0.2,0h-0.1
	c-0.4,0-0.7,0-1.1,0H42h0c-0.2,0-0.2,0-0.2,0s0-0.1,0-0.3c0-1.1,0-2.2,0-3.3s0-2.4,0-3.6c0-0.4,0-0.7-0.2-1
	c-0.2-0.3-0.4-0.6-0.7-0.8h-0.1h-8.5l-0.1,0.1c-0.3,0.2-0.5,0.5-0.6,0.8c-0.1,0.3-0.2,0.7-0.2,1c0,3.7,0,7.4,0,11c0,0.4,0,0.7,0.2,1
	c0.1,0.3,0.3,0.6,0.6,0.9c1.1,1,2.1,2,3.2,3.1l1,1c-0.4,0.2-0.8,0.6-1,1C35.1,20.5,35,21,35,21.4V22c0,1.2,0,2.5,0,3.7
	c0,0.6,0.2,1.2,0.6,1.7c0.4,0.5,0.9,0.8,1.5,1c0.3,0.1,0.3,0.1,0.3,0.4c-0.2,1.9-0.3,3.8-0.5,5.6l-0.5,6.5
	c-0.4,4.9-0.8,9.8-1.2,14.7v0c0,0.3,0,0.6-0.1,0.9c-0.1,0.1-0.4,0.2-0.8,0.4c-0.2,0.1-0.4,0.1-0.6,0.2c-1.2,0.5-2.1,1.4-2.7,2.5
	c-0.6,1.1-0.9,2.4-0.7,3.6c0,0.3,0,0.4,0,0.4c0,0-0.1,0.1-0.4,0.1c-1,0-2.1,0.3-2.9,0.9C26,65.1,25.5,66,25.3,67
	c-0.3,1.5-0.3,3.1,0,4.6c0.3,1.7,1.4,2.9,3.4,3.5h44l0.1-0.1h0.1h0.2c0.7-0.2,1.3-0.6,1.9-1.1c0.5-0.5,0.9-1.2,1-1.9
	c0.3-1.7,0.3-3.5,0-5.2c-0.2-1-0.7-2-1.6-2.6C73.5,63.6,72.5,63.3,71.4,63.4z M34.5,13.1c-0.1-0.1-0.2-0.2-0.2-0.3
	c0-0.1-0.1-0.3-0.1-0.4c0-2.8,0-6,0-9.2c0-0.3,0-0.3,0-0.3s0,0,0.2,0h0.1c0.6,0,1.3,0,2,0h2h0c0.2,0,0.2,0,0.2,0s0,0.1,0,0.3
	c0,1.9,0,3.8,0,5.7v1.3c0,1.3,0.5,1.8,1.9,1.8h4.7c1.5,0,1.9-0.4,1.9-2V8.4c0-1.7,0-3.5,0-5.2c0-0.3,0-0.3,0-0.3c0.1,0,0.2,0,0.3,0
	h2.7h2.9c0.2,0,0.3,0,0.3,0s0,0,0,0.3c0,1.9,0,3.9,0,5.8v1.3c0,1.2,0.5,1.7,1.8,1.7h5c1.2,0,1.7-0.5,1.7-1.8V9c0-1.9,0-3.9,0-5.8
	c0-0.3,0-0.4,0.1-0.4c0.1,0,0.1-0.1,0.3-0.1h0.1c0.6,0,1.2,0,1.9,0s1.5,0,2.2,0c0.2,0,0.2,0,0.2,0s0,0,0,0.2c0,3.3,0,6.6,0,9.4
	c0,0.1,0,0.2-0.1,0.3c0,0.1-0.1,0.2-0.2,0.3c-1.6,1.6-3.4,3.4-5.1,5.1c-0.1,0.1-0.2,0.2-0.3,0.2c-0.1,0-0.3,0.1-0.4,0H40
	c-0.1,0-0.3,0-0.4-0.1c-0.1-0.1-0.2-0.1-0.3-0.2C37.9,16.5,36.2,14.8,34.5,13.1z M63,25.5H44.4h-6.1c-0.2,0-0.4,0-0.5-0.1
	c-0.1-0.2-0.1-0.3-0.1-0.5c0.1-1.1,0-2.2,0-3.2c0-0.1,0-0.3,0.1-0.4c0,0,0.1-0.1,0.4-0.1h24.6c0.2,0,0.5,0,0.7,0c0,0.2,0,0.5,0,0.7
	v0.9c0,0.7,0,1.4,0,2.1c0,0.1,0,0.3-0.1,0.4C63.4,25.5,63.2,25.5,63,25.5L63,25.5z M63.3,56.3c0,0-0.1,0.1-0.4,0.1H50.3h-12
	c-0.3,0-0.3,0-0.4,0c0,0,0-0.1,0-0.3c0.7-8.1,1.4-16.8,2.2-27.4c0-0.3,0-0.3,0.3-0.3h20.4c0.2,0,0.2,0,0.3,0.2
	c0.1,1,0.2,2.1,0.2,3.1l0.1,1.5l0.1,1.3c0.4,4.5,1.5,18.3,1.8,21.3C63.3,56.2,63.3,56.3,63.3,56.3z M32.9,62.9c0-0.2,0-0.4,0-0.6
	c0-0.3,0-0.7,0.1-1c0.2-0.6,0.5-1.2,1.1-1.6c0.5-0.4,1.2-0.6,1.8-0.6h29.3c0.8,0,1.6,0.3,2.1,0.9c0.6,0.6,0.9,1.3,0.9,2.1
	c0.1,0.4,0,0.8-0.1,1.1c-0.4,0.1-0.8,0.1-1.1,0.1H42.6c-2.5,0-5.8,0-9.2,0c-0.3,0-0.4-0.1-0.5-0.1C32.9,63.2,32.9,63.2,32.9,62.9z
	 M73.2,70.7c0,0.4-0.1,0.8-0.4,1.1c-0.3,0.3-0.6,0.5-1,0.5H29.7c-0.2,0-0.5,0-0.7-0.1c-0.2-0.1-0.4-0.2-0.6-0.4
	c-0.2-0.2-0.3-0.4-0.4-0.6c-0.1-0.2-0.1-0.5-0.1-0.7v-0.1c0-0.8,0-1.6,0-2.4c0-0.2,0-0.4,0.1-0.6c0.1-0.2,0.2-0.4,0.3-0.5
	c0.1-0.2,0.3-0.3,0.5-0.4c0.2-0.1,0.4-0.1,0.6-0.1h41.6c0.3,0,0.6,0,0.9,0c0.4,0,0.7,0.2,0.9,0.5c0.2,0.3,0.4,0.6,0.3,1
	C73.2,68.7,73.2,69.7,73.2,70.7z M20.4,38.7l4.4,22c0.5-0.3,0.9-0.5,1.4-0.7c0.1-0.7,0.4-1.3,0.6-1.9L23,38.7h0.3
	c0.8,0,1.6-0.3,2.1-0.9c0.6-0.6,0.9-1.3,0.9-2.1v-1.7c0-0.8-0.3-1.6-0.9-2.1c-0.6-0.6-1.3-0.9-2.1-0.9h-0.4c1.3-1.3,2.3-2.9,2.7-4.7
	c0.4-1.8,0.2-3.7-0.5-5.4c-0.7-1.7-1.9-3.2-3.4-4.2c-1.5-1-3.4-1.6-5.2-1.6s-3.7,0.6-5.2,1.6c-1.5,1-2.7,2.5-3.4,4.2
	c-0.7,1.7-0.8,3.6-0.5,5.4c0.4,1.8,1.3,3.5,2.7,4.7H9.7c-0.8,0-1.6,0.3-2.1,0.9s-0.9,1.3-0.9,2.1v1.7c0,0.8,0.3,1.6,0.9,2.1
	s1.3,0.9,2.1,0.9h0.3L5.4,63.5H3.3c-0.4,0-0.9,0.1-1.3,0.2S1.3,64.1,1,64.4c-0.3,0.3-0.5,0.7-0.7,1.1C0.1,65.9,0,66.3,0,66.7v4.8
	c0,0.4,0.1,0.9,0.2,1.3c0.2,0.4,0.4,0.8,0.7,1.1c0.3,0.3,0.7,0.5,1.1,0.7c0.4,0.2,0.8,0.2,1.3,0.2H22c-0.4-0.8-0.7-1.7-0.9-2.6H3.3
	c-0.2,0-0.4-0.1-0.5-0.2c-0.1-0.1-0.2-0.3-0.2-0.5v-4.8c0-0.2,0.1-0.4,0.2-0.5C2.9,66.1,3.1,66,3.3,66h17.9c0.2-1,0.6-2,1.1-2.8H8
	l4.6-24.5L20.4,38.7z M9.8,24.2c0-1.3,0.4-2.6,1.1-3.7c0.7-1.1,1.8-2,3-2.5c1.2-0.5,2.6-0.6,3.9-0.4c1.3,0.3,2.5,0.9,3.4,1.8
	s1.6,2.1,1.8,3.4c0.3,1.3,0.1,2.7-0.4,3.9c-0.5,1.2-1.4,2.3-2.5,3c-1.1,0.7-2.4,1.1-3.7,1.1c-1.8,0-3.5-0.7-4.7-2
	C10.5,27.7,9.8,26,9.8,24.2L9.8,24.2z M9.7,36.1c-0.1,0-0.2,0-0.3-0.1c-0.1-0.1-0.1-0.2-0.1-0.3v-1.7c0-0.1,0-0.2,0.1-0.3
	c0.1-0.1,0.2-0.1,0.3-0.1h13.6c0.1,0,0.2,0,0.3,0.1c0.1,0.1,0.1,0.2,0.1,0.3v1.7c0,0.1,0,0.2-0.1,0.3c-0.1,0.1-0.2,0.1-0.3,0.1H9.7z
	 M97.4,63.4h-2.3l-5-24.8h0.3c0.8,0,1.6-0.3,2.1-0.9c0.6-0.6,0.9-1.3,0.9-2.1v-1.7c0-0.8-0.3-1.6-0.9-2.1c-0.6-0.6-1.3-0.9-2.1-0.9
	H90c1.3-1.3,2.3-2.9,2.7-4.7c0.4-1.8,0.2-3.7-0.5-5.4c-0.7-1.7-1.9-3.2-3.4-4.2c-1.5-1-3.4-1.6-5.2-1.6s-3.7,0.6-5.2,1.6
	c-1.5,1-2.7,2.5-3.4,4.2c-0.7,1.7-0.8,3.6-0.5,5.4c0.4,1.8,1.3,3.5,2.7,4.7h-0.4c-0.8,0-1.6,0.3-2.1,0.9c-0.6,0.6-0.9,1.3-0.9,2.1
	v1.7c0,0.8,0.3,1.6,0.9,2.1c0.6,0.6,1.3,0.9,2.1,0.9h0.3l-3.5,18.2c0.6,0.9,1,1.9,1.2,3c0.3,0.1,0.5,0.2,0.8,0.4l4.1-21.6h7.7
	l4.9,24.5H78.9c0.5,0.8,0.8,1.7,1,2.6c0,0.1,0,0.2,0,0.2h17.4c0.2,0,0.4,0.1,0.5,0.2s0.2,0.3,0.2,0.5v4.8c0,0.2-0.1,0.4-0.2,0.5
	s-0.3,0.2-0.5,0.2H80c0,0.1,0,0.3-0.1,0.4c-0.2,0.8-0.4,1.5-0.8,2.2h18.2c0.9,0,1.7-0.3,2.3-1c0.6-0.6,1-1.4,1-2.3v-4.8
	c0-0.4-0.1-0.9-0.3-1.3c-0.2-0.4-0.4-0.8-0.7-1.1c-0.3-0.3-0.7-0.5-1.1-0.7C98.2,63.5,97.8,63.4,97.4,63.4L97.4,63.4z M76.9,24.2
	c0-1.3,0.4-2.6,1.1-3.7c0.7-1.1,1.8-2,3-2.5c1.2-0.5,2.6-0.6,3.9-0.4c1.3,0.3,2.5,0.9,3.4,1.8c0.9,0.9,1.6,2.1,1.8,3.4
	c0.3,1.3,0.1,2.7-0.4,3.9c-0.5,1.2-1.4,2.3-2.5,3c-1.1,0.7-2.4,1.1-3.7,1.1c-1.8,0-3.5-0.7-4.7-2C77.6,27.7,76.9,26,76.9,24.2
	L76.9,24.2z M76.8,36.1c-0.1,0-0.2,0-0.3-0.1c-0.1-0.1-0.1-0.2-0.1-0.3v-1.7c0-0.1,0-0.2,0.1-0.3c0.1-0.1,0.2-0.1,0.3-0.1h13.6
	c0.1,0,0.2,0,0.3,0.1c0.1,0.1,0.1,0.2,0.1,0.3v1.7c0,0.1,0,0.2-0.1,0.3c-0.1,0.1-0.2,0.1-0.3,0.1H76.8z"/>
</svg>
