<?xml version="1.0" encoding="utf-8"?>
<!-- Generator: Adobe Illustrator 25.4.1, SVG Export Plug-In . SVG Version: 6.00 Build 0)  -->
<svg version="1.1" id="line" xmlns="http://www.w3.org/2000/svg" xmlns:xlink="http://www.w3.org/1999/xlink" x="0px" y="0px"
	 viewBox="0 0 512 512" style="enable-background:new 0 0 512 512;" xml:space="preserve">
<g>
	<path d="M139.3,378.5c-51.6-1.6-51.6-76.5,0-78.2c21.7,0.3,39.1,18.1,38.8,39.8c-0.1,8.3-2.9,16.4-7.9,23.1
		c-2.6,3.6-1.9,8.6,1.7,11.2c3.5,2.6,8.3,1.9,11-1.4c18.6-24.1,14.2-58.7-9.9-77.3c-24.1-18.6-58.7-14.2-77.3,9.9
		s-14.2,58.7,9.9,77.3c0.5,0.4,1.1,0.8,1.6,1.2c-27.2,9.7-48.4,31.2-57.8,58.5c-5,15.7,3.7,32.4,19.4,37.4c2.9,0.9,5.9,1.4,8.9,1.4
		l123,0c9.7,0,18.8-4.7,24.4-12.6c5.5-7.6,7-17.3,3.9-26.2C215.9,404.2,179.8,378.5,139.3,378.5L139.3,378.5z M212.1,459.5
		c-2.6,3.7-6.9,5.9-11.4,5.9h-123c-4.5,0-8.8-2.2-11.4-5.9c-2.5-3.4-3.2-7.7-1.8-11.7c14.2-41.2,59.1-63.2,100.3-49
		c23,7.9,41.1,26,49,49C215.3,451.8,214.6,456.1,212.1,459.5z"/>
	<path d="M462.5,442.6c-9.4-27.3-30.6-48.8-57.8-58.5c43-30.3,21.3-99.9-32-99.8c-30.4,0-55,24.7-55.1,55.1
		c-0.5,10.3,7.8,43.9,22.6,35c3.5-2.7,4.2-7.7,1.5-11.2c0,0,0,0,0,0c-13.2-17.1-10-41.6,7.1-54.8c17.1-13.2,41.6-10,54.8,7.1
		c13.2,17.1,10,41.6-7.1,54.8c-6.8,5.3-15.2,8.1-23.8,8.1c-40.6,0-76.7,25.8-89.8,64.1c-5,15.7,3.7,32.4,19.4,37.4
		c2.9,0.9,5.9,1.4,8.9,1.4l123,0c16.5,0,29.8-13.4,29.7-29.9C463.9,448.5,463.5,445.5,462.5,442.6L462.5,442.6z M445.6,459.5
		c-2.6,3.7-6.9,5.9-11.4,5.9h-123c-4.5,0-8.8-2.2-11.4-5.9c-2.5-3.4-3.2-7.7-1.8-11.7c14.2-41.2,59.1-63.2,100.3-49
		c23,7.9,41.1,26,49,49C448.8,451.8,448.1,456.1,445.6,459.5L445.6,459.5z"/>
	<path d="M339.8,217.8c3.5,2.7,8.6,2.1,11.3-1.4c1.1-1.4,1.7-3.1,1.7-4.8v-35.2h20.8c12.4,0,22.4-10,22.4-22.4V53
		c0-12.4-10-22.4-22.4-22.4H229.4c-12.4,0-22.4,10-22.4,22.4v50.4h-70.9c-11.1,0-20.1,9-20.2,20.2v84.9c0,11.1,9,20.1,20.2,20.2
		h16.3v28.4c0.1,4.4,3.7,8,8.2,7.9c1.8,0,3.4-0.6,4.8-1.7l43.3-34.7h48.8c11.1,0,20.1-9,20.2-20.2v-32.2h10.2L339.8,217.8z
		 M261.7,208.5c0,2.3-1.8,4.1-4.1,4.2c0,0-0.1,0-0.1,0h-51.6c-1.8,0-3.6,0.6-5,1.8l-32.5,26v-19.8c0-4.4-3.6-8-8-8h-24.3
		c-2.3,0-4.1-1.8-4.2-4.1c0,0,0-0.1,0-0.1v-84.9c0-2.3,1.8-4.1,4.1-4.2c0,0,0.1,0,0.1,0H207v34.5c0,12.4,10,22.4,22.4,22.4h32.2
		V208.5z M229.4,160.3c-3.5,0-6.4-2.9-6.4-6.4V53c0-3.5,2.9-6.4,6.4-6.4h144.1c3.5,0,6.4,2.9,6.4,6.4v100.9c0,3.5-2.9,6.4-6.4,6.4
		h-28.8c-4.4,0-8,3.6-8,8v26.6l-41.1-32.8c-1.4-1.1-3.2-1.8-5-1.8L229.4,160.3z"/>
</g>
</svg>
