<svg width="27" height="26" viewBox="0 0 27 26" fill="none" xmlns="http://www.w3.org/2000/svg">
<path d="M25.4698 11.6779L14.3241 0.538176C13.9689 0.232906 13.5114 0.0730525 13.0433 0.0906447C12.5752 0.108237 12.131 0.301975 11.7997 0.633042C11.4685 0.964109 11.2747 1.40805 11.2571 1.87592C11.2395 2.34379 11.3994 2.80102 11.7048 3.15602L21.5505 12.9773L11.7048 22.7985C11.3634 23.1474 11.173 23.6166 11.1748 24.1047C11.1766 24.5927 11.3705 25.0605 11.7145 25.4068C12.0585 25.7532 12.5251 25.9504 13.0134 25.9558C13.5017 25.9611 13.9725 25.7742 14.3241 25.4355L25.4698 14.2958C25.8156 13.9478 26.0097 13.4773 26.0097 12.9868C26.0097 12.4964 25.8156 12.0259 25.4698 11.6779ZM14.3432 11.6588L3.19751 0.51903C2.84521 0.181305 2.37451 -0.00498827 1.88638 0.000101619C1.39824 0.00519151 0.931538 0.20126 0.586356 0.546257C0.241174 0.891254 0.0450008 1.35771 0.0399082 1.84558C0.0348155 2.33346 0.221209 2.8039 0.559114 3.15602L10.4048 12.9773L0.559114 22.7985C0.382944 22.9708 0.242791 23.1763 0.146808 23.4031C0.0508244 23.63 0.000925297 23.8736 1.27473e-05 24.1199C-0.000899802 24.3662 0.0471919 24.6103 0.141492 24.8378C0.235792 25.0654 0.374418 25.2719 0.549308 25.4455C0.724197 25.619 0.931861 25.756 1.16022 25.8486C1.38858 25.9412 1.63308 25.9875 1.8795 25.9848C2.12592 25.9821 2.36935 25.9304 2.59562 25.8328C2.82188 25.7353 3.02648 25.5937 3.19751 25.4164L14.3432 14.2766C14.6891 13.9287 14.8832 13.4581 14.8832 12.9677C14.8832 12.4773 14.6891 12.0067 14.3432 11.6588Z" fill="#5C5C5C"/>
</svg>
