<?xml version="1.0" encoding="utf-8"?>
<!-- Generator: Adobe Illustrator 25.4.1, SVG Export Plug-In . SVG Version: 6.00 Build 0)  -->
<svg version="1.1" id="Layer_1" xmlns="http://www.w3.org/2000/svg" xmlns:xlink="http://www.w3.org/1999/xlink" x="0px" y="0px"
	 viewBox="0 0 91 91" style="enable-background:new 0 0 91 91;" xml:space="preserve">
<style type="text/css">
	.st0{fill:#FFFFFF;}
</style>
<path class="st0" d="M46.3,56.7c-0.1-0.2-0.2-0.4-0.4-0.5c-0.2-0.1-0.4-0.3-0.6-0.3c-0.2-0.1-0.4-0.1-0.6-0.1
	c-0.2,0-0.4,0.1-0.6,0.2c-1,0.4-2,0.8-3,1.1c-0.4,0.1-0.8,0.4-1.1,0.7c-0.3,0.3-0.4,0.7-0.5,1.2c-0.4,2.3-0.9,4.5-1.4,6.8
	c0,0.2-0.1,0.4-0.2,0.6c-0.1,0.2-0.2,0.3-0.4,0.5c-0.2,0.1-0.3,0.2-0.5,0.3c-0.2,0.1-0.4,0.1-0.6,0c-1.2,0-2.3,0-3.4,0
	c-1.1,0-1.7-0.4-2-1.6c-0.5-2.2-0.9-4.5-1.4-6.7c0-0.4-0.2-0.8-0.5-1.1c-0.3-0.3-0.6-0.5-1-0.6c-1.4-0.4-2.8-1-4.1-1.7
	c-0.4-0.3-0.9-0.4-1.3-0.4c-0.5,0-0.9,0.2-1.3,0.5c-1.8,1.3-3.7,2.5-5.6,3.8c-0.2,0.2-0.4,0.3-0.6,0.3c-0.2,0.1-0.4,0.1-0.7,0.1
	c-0.2,0-0.4-0.1-0.6-0.2c-0.2-0.1-0.4-0.3-0.5-0.5c-0.8-0.7-1.5-1.5-2.2-2.2c-1.1-1.1-1.1-1.6-0.3-2.8c1.2-1.8,2.5-3.7,3.7-5.5
	c0.2-0.3,0.4-0.7,0.4-1c0-0.4-0.1-0.8-0.3-1.1c-0.8-1.4-1.4-2.9-1.8-4.5c-0.1-0.4-0.3-0.7-0.6-1c-0.3-0.3-0.7-0.4-1.1-0.5
	C9,40,6.7,39.5,4.4,39.1c-0.2,0-0.4-0.1-0.6-0.1c-0.2-0.1-0.3-0.2-0.5-0.4c-0.1-0.2-0.2-0.3-0.3-0.5c-0.1-0.2-0.1-0.4,0-0.6
	c0-1.2,0-2.4,0-3.6c0-1.2,0.4-1.7,1.6-1.9c2.3-0.5,4.5-0.9,6.8-1.4c0.4,0,0.7-0.2,1-0.5c0.3-0.2,0.5-0.6,0.5-0.9
	c0.4-1.5,1-3,1.8-4.4c0.2-0.3,0.3-0.8,0.3-1.2c0-0.4-0.2-0.8-0.4-1.1c-1.2-1.7-2.4-3.5-3.5-5.3c-1-1.5-1-2,0.3-3.3l1.7-1.7
	c1.2-1.2,1.7-1.2,3-0.3c1.8,1.2,3.7,2.4,5.5,3.7c0.3,0.2,0.7,0.4,1.1,0.4c0.4,0,0.8-0.1,1.1-0.3c1.4-0.8,2.9-1.4,4.4-1.8
	c0.4-0.1,0.7-0.3,0.9-0.5c0.2-0.3,0.4-0.6,0.5-1c0.4-2.3,0.9-4.6,1.4-6.9C31.2,4.4,31.7,4,32.8,4s2.4,0,3.6,0s1.5,0.3,1.7,1.4
	c0.5,2.2,0.9,4.5,1.3,6.7c0,0.4,0.2,0.8,0.5,1.1c0.3,0.3,0.7,0.5,1.1,0.6c1.4,0.4,2.8,1,4.1,1.7c0.4,0.3,0.9,0.4,1.3,0.4
	c0.5,0,0.9-0.2,1.3-0.5c1.7-1.2,3.5-2.4,5.3-3.5c1.3-0.9,1.8-0.8,3,0.3l2.1,2c1,1,1,1.5,0.2,2.6c-1.2,1.8-2.4,3.7-3.7,5.5
	c-0.3,0.3-0.5,0.8-0.5,1.2c0,0.5,0.1,0.9,0.3,1.3c0.8,1.3,1.3,2.7,1.8,4.2c0.1,0.4,0.3,0.7,0.6,1c0.3,0.3,0.7,0.4,1.1,0.5
	c2.2,0.4,4.5,0.9,6.7,1.4c1.2,0.2,1.6,0.7,1.6,2c0,1,0,1.9,0,2.9c0,1.7-0.3,2.1-2,2.4l-6.4,1.3c-0.4,0-0.7,0.2-1,0.5
	c-0.3,0.3-0.5,0.6-0.6,1c-0.3,1.1-0.7,2.2-1.2,3.3c-0.1,0.2-0.2,0.4-0.2,0.6c0,0.2,0,0.4,0.1,0.6c0.1,0.2,0.2,0.4,0.3,0.5
	c0.1,0.2,0.3,0.3,0.5,0.4c0.2,0.1,0.4,0.1,0.6,0.1c0.2,0,0.4,0,0.6-0.1s0.4-0.2,0.5-0.4c0.1-0.2,0.3-0.3,0.3-0.5
	c0.4-0.8,0.7-1.5,1-2.4c0.1-0.2,0.2-0.5,0.4-0.6c0.2-0.2,0.4-0.3,0.7-0.3c2-0.4,4-0.8,5.9-1.2c0.9-0.2,1.7-0.6,2.3-1.2
	c0.6-0.6,1-1.5,1.1-2.3c0.3-1.8,0.3-3.7,0-5.5c-0.1-1-0.5-1.9-1.2-2.6c-0.7-0.7-1.6-1.2-2.5-1.3c-1.8-0.4-3.6-0.8-5.4-1.1
	c-0.3,0-0.6-0.1-0.9-0.3s-0.4-0.5-0.5-0.8c-0.3-0.8-0.6-1.5-1-2.3c-0.1-0.2-0.2-0.5-0.2-0.7c0-0.3,0.1-0.5,0.3-0.7
	c1.1-1.6,2.1-3.2,3.2-4.8c0.7-0.9,1-2,0.9-3.1c-0.1-1.1-0.6-2.1-1.5-2.9c-0.9-0.9-1.8-1.8-2.7-2.7C57,8.8,56,8.3,54.9,8.2
	c-1.1-0.1-2.2,0.2-3.1,0.8c-1.4,0.9-2.9,1.8-4.2,2.8c-0.3,0.3-0.8,0.5-1.2,0.6c-0.5,0-0.9-0.1-1.3-0.3c-0.6-0.3-1.3-0.6-1.9-0.8
	c-0.2-0.1-0.5-0.2-0.6-0.4c-0.2-0.2-0.3-0.4-0.3-0.7c-0.3-1.7-0.7-3.3-1-5c-0.1-1-0.5-1.9-1.1-2.7c-0.6-0.8-1.4-1.4-2.4-1.7h-6.5
	c-0.9,0.3-1.8,1-2.4,1.8c-0.6,0.8-1,1.8-1.1,2.8C27.6,7,27.2,8.5,27,10.1c0,0.3-0.1,0.6-0.3,0.9c-0.2,0.2-0.5,0.4-0.8,0.5
	c-0.6,0.1-1.2,0.4-1.7,0.7c-0.4,0.3-0.8,0.4-1.3,0.4c-0.4,0-0.9-0.2-1.2-0.5c-1.4-1-2.9-2-4.3-2.9c-0.9-0.6-2-0.9-3.1-0.8
	c-1.1,0.1-2.1,0.6-2.9,1.4c-0.9,0.9-1.8,1.8-2.7,2.7c-0.8,0.8-1.3,1.8-1.4,2.9c-0.1,1.1,0.2,2.2,0.8,3.1c1.1,1.6,2.1,3.2,3.2,4.8
	c0.2,0.2,0.2,0.4,0.3,0.7c0,0.2,0,0.5-0.2,0.7c-0.4,0.8-0.7,1.6-1,2.4c-0.1,0.3-0.2,0.5-0.4,0.6c-0.2,0.2-0.4,0.3-0.7,0.3
	c-1.6,0.3-3.2,0.7-4.8,0.9c-1,0.1-2,0.4-2.8,1C1,30.4,0.3,31.2,0,32.2v6.5c0.3,0.9,0.9,1.8,1.7,2.4c0.8,0.6,1.7,1,2.7,1.1
	c1.7,0.2,3.3,0.7,5,1c0.2,0,0.5,0.1,0.7,0.3c0.2,0.2,0.3,0.4,0.4,0.6c0.3,0.9,0.6,1.7,1,2.5c0.1,0.2,0.2,0.5,0.2,0.7
	c0,0.2-0.1,0.5-0.3,0.7c-1.1,1.6-2.2,3.2-3.3,4.9c-0.6,0.9-0.9,1.9-0.8,3c0.1,1.1,0.6,2,1.4,2.8c0.9,0.9,1.7,1.8,2.6,2.6
	c0.7,0.9,1.8,1.4,3,1.6s2.3-0.2,3.2-0.9c1.6-1,3.1-2,4.7-3.1c0.2-0.2,0.4-0.3,0.7-0.3c0.3,0,0.5,0,0.7,0.2c0.7,0.4,1.5,0.7,2.3,0.9
	c0.3,0.1,0.6,0.2,0.8,0.5c0.2,0.2,0.3,0.5,0.3,0.9c0.3,1.8,0.7,3.6,1.1,5.4c0.2,1.1,0.7,2.1,1.6,2.8c0.8,0.7,1.9,1.1,3,1.1
	c1.1,0,2.3,0,3.4,0c2.9,0,4.6-1.4,5.1-4.2c0.3-1.8,0.7-3.6,1-5.3c0-0.2,0.1-0.4,0.3-0.6c0.1-0.2,0.3-0.3,0.5-0.3
	c0.8-0.3,1.5-0.6,2.3-0.9c0.2,0,0.4-0.1,0.6-0.3c0.2-0.1,0.3-0.3,0.4-0.5s0.2-0.4,0.2-0.6S46.4,56.9,46.3,56.7z M86.8,62.8
	c-0.8-0.1-1.7-0.3-2.5-0.5c-0.3-0.1-0.7-0.2-0.9-0.4c-0.3-0.2-0.5-0.5-0.6-0.8c-0.1-0.3-0.2-0.7-0.1-1c0-0.3,0.2-0.7,0.4-0.9
	c0.6-0.8,1.1-1.6,1.6-2.5c0.5-0.7,0.7-1.5,0.6-2.4c-0.1-0.8-0.5-1.6-1.1-2.2c-0.5-0.5-1-1-1.5-1.6c-0.6-0.7-1.5-1.2-2.4-1.3
	c-0.9-0.1-1.9,0.2-2.6,0.8c-0.9,0.6-1.7,1.2-2.6,1.7c-0.3,0.1-0.5,0.2-0.8,0.2c-0.3,0-0.6-0.1-0.8-0.2c-0.3-0.1-0.5-0.3-0.7-0.5
	c-0.2-0.2-0.4-0.4-0.5-0.7c-0.2-1.1-0.4-2.2-0.7-3.3c-0.2-0.8-0.6-1.5-1.2-2c-0.6-0.5-1.4-0.8-2.3-0.7h-2.6c-0.8,0-1.6,0.3-2.2,0.8
	c-0.6,0.5-1.1,1.2-1.2,2c-0.2,1.1-0.4,2.2-0.7,3.3c-0.1,0.3-0.2,0.5-0.4,0.7c-0.2,0.2-0.4,0.4-0.7,0.5c-0.3,0.1-0.6,0.2-0.8,0.2
	c-0.3,0-0.6-0.1-0.8-0.2c-1-0.6-1.9-1.3-2.9-1.9c-0.7-0.4-1.5-0.6-2.3-0.6c-0.8,0.1-1.5,0.4-2.1,1c-0.6,0.6-1.3,1.2-1.9,1.9
	c-0.6,0.6-1,1.4-1.1,2.2c-0.1,0.8,0.2,1.7,0.7,2.4c0.6,0.9,1.2,1.8,1.8,2.7c0.1,0.2,0.2,0.4,0.3,0.6s0,0.5-0.1,0.7
	c-0.2,0.5-0.4,0.9-0.5,1.4l-3.8,0.8c-0.8,0.1-1.6,0.4-2.1,1c-0.6,0.6-0.9,1.3-1,2.2c0,0.9,0,1.9,0,2.8c-0.1,0.9,0.2,1.7,0.8,2.4
	c0.5,0.7,1.3,1.1,2.2,1.2c1.1,0.2,2.1,0.4,3.2,0.7c0.3,0.1,0.5,0.3,0.7,0.5c0.2,0.2,0.4,0.4,0.5,0.7c0.1,0.3,0.2,0.6,0.2,0.8
	c0,0.3-0.1,0.6-0.2,0.8c-0.6,0.9-1.2,1.8-1.8,2.8c-0.5,0.7-0.7,1.5-0.6,2.3c0.1,0.8,0.4,1.6,1,2.1c0.6,0.6,1.2,1.2,1.8,1.8
	c0.6,0.6,1.4,1,2.2,1.1c0.9,0.1,1.7-0.2,2.4-0.7c0.9-0.6,1.8-1.2,2.7-1.8c0.3-0.1,0.5-0.2,0.8-0.2c0.3,0,0.6,0,0.8,0.2
	c0.3,0.1,0.5,0.3,0.7,0.5c0.2,0.2,0.4,0.4,0.5,0.7c0.2,1.1,0.4,2.2,0.7,3.3c0.1,0.8,0.6,1.5,1.2,2c0.6,0.5,1.4,0.8,2.2,0.8H68
	c0.8,0,1.7-0.2,2.3-0.8s1.1-1.3,1.2-2.1c0.2-1,0.4-2.1,0.6-3.1c0.1-0.3,0.2-0.6,0.4-0.8c0.2-0.2,0.5-0.4,0.8-0.5
	c0.3-0.1,0.6-0.2,0.9-0.2c0.3,0,0.6,0.1,0.9,0.3c0.9,0.6,1.7,1.2,2.6,1.8c0.7,0.5,1.5,0.7,2.3,0.6c0.8-0.1,1.6-0.4,2.2-1
	c0.7-0.6,1.4-1.3,2-2c0.6-0.6,0.9-1.3,1-2.2c0.1-0.8-0.2-1.6-0.6-2.3c-0.6-1-1.3-1.9-1.9-2.8c-0.2-0.5-0.2-1.1,0.1-1.6
	c0.2-0.5,0.6-0.9,1.1-1.1c1-0.2,1.9-0.4,2.9-0.6c0.7-0.1,1.4-0.4,2-0.8c0.6-0.5,1-1.1,1.2-1.8v-4.6c-0.2-0.7-0.7-1.3-1.3-1.8
	C88.2,63.2,87.5,62.9,86.8,62.8z M86.1,69.6c-1.4,0.2-2.7,0.6-4.1,0.8c-0.3,0-0.7,0.2-0.9,0.4c-0.3,0.2-0.5,0.5-0.5,0.9
	c-0.3,1-0.7,1.9-1.2,2.8c-0.2,0.3-0.3,0.6-0.2,1c0,0.3,0.1,0.7,0.4,0.9c0.5,0.7,1,1.5,1.5,2.3c1.6,2.5,1.7,1.6-0.4,3.9
	c-0.1,0.1-0.2,0.2-0.3,0.3C80.1,83,80,83,79.9,83c-0.1,0-0.3,0-0.4-0.1c-0.1,0-0.2-0.1-0.3-0.2c-1.2-0.8-2.4-1.6-3.6-2.4
	C75.3,80.2,75,80,74.7,80c-0.3,0-0.7,0.1-1,0.2c-0.9,0.5-1.9,0.9-2.9,1.2c-0.3,0.1-0.6,0.2-0.8,0.5c-0.2,0.2-0.4,0.5-0.4,0.9
	c-0.2,0.9-0.3,1.8-0.5,2.7c-0.7,2.8,0.1,2.4-3.1,2.4c-0.1,0-0.2,0-0.4,0c-0.1,0-0.2-0.1-0.3-0.2c-0.1-0.1-0.2-0.2-0.2-0.3
	c-0.1-0.1-0.1-0.2-0.1-0.4c-0.2-1.4-0.6-2.8-0.9-4.2c0-0.3-0.2-0.6-0.4-0.9c-0.2-0.2-0.5-0.4-0.8-0.5c-1-0.3-2-0.7-3-1.2
	c-0.3-0.2-0.6-0.2-0.9-0.2c-0.3,0-0.6,0.1-0.9,0.3c-0.8,0.5-1.5,1-2.3,1.5c-2.6,1.6-1.6,1.8-3.9-0.4c-0.1-0.1-0.2-0.2-0.3-0.3
	c-0.1-0.1-0.1-0.2-0.1-0.4c0-0.1,0-0.3,0-0.4c0-0.1,0.1-0.2,0.2-0.3c0.8-1.2,1.6-2.4,2.4-3.6c0.2-0.3,0.3-0.6,0.4-0.9
	c0-0.3-0.1-0.7-0.2-1c-0.5-0.9-0.9-1.9-1.2-2.9c-0.1-0.3-0.3-0.6-0.5-0.8c-0.3-0.2-0.6-0.4-0.9-0.4c-0.9-0.2-1.9-0.4-2.8-0.6
	c-2.5-0.6-2.2,0-2.3-2.8c0-0.3,0-0.5,0.1-0.8c0.1-0.2,0.4-0.4,0.6-0.5l4.3-0.9c0.3,0,0.7-0.2,0.9-0.4c0.3-0.2,0.4-0.5,0.5-0.9
	c0.3-1,0.7-2,1.2-2.9c0.2-0.3,0.3-0.6,0.2-1c0-0.3-0.2-0.7-0.4-0.9c-0.5-0.8-1-1.5-1.5-2.3C51,54.1,50.9,55,53,52.8
	c0.1-0.1,0.2-0.2,0.3-0.3c0.1-0.1,0.3-0.1,0.4-0.1c0.1,0,0.3,0,0.4,0c0.1,0,0.3,0.1,0.4,0.2c1.1,0.8,2.3,1.6,3.5,2.4
	c0.3,0.2,0.6,0.3,0.9,0.4c0.3,0,0.7-0.1,1-0.2c0.9-0.5,1.9-0.9,2.9-1.2c0.3-0.1,0.6-0.3,0.8-0.5c0.2-0.3,0.4-0.6,0.4-0.9
	c0.2-0.9,0.3-1.8,0.6-2.8c0.6-2.7-0.1-2.4,3-2.4c0.3,0,0.5,0.1,0.7,0.2c0.2,0.2,0.3,0.4,0.4,0.7c0.2,1.4,0.6,2.8,0.8,4.2
	c0,0.3,0.2,0.7,0.4,0.9c0.2,0.3,0.5,0.4,0.9,0.5c1,0.3,1.9,0.7,2.8,1.2c0.3,0.2,0.6,0.2,0.9,0.2c0.3,0,0.6-0.1,0.9-0.3
	c0.8-0.5,1.5-1,2.3-1.5c2.6-1.7,1.7-1.8,4,0.4c0.1,0.1,0.2,0.2,0.2,0.3c0.1,0.1,0.1,0.2,0.1,0.4c0,0.1,0,0.2,0,0.4
	c0,0.1-0.1,0.2-0.2,0.3c-0.8,1.2-1.6,2.4-2.4,3.6c-0.2,0.3-0.4,0.6-0.4,1c0,0.4,0.1,0.7,0.3,1c0.5,0.9,0.9,1.8,1.2,2.8
	c0.1,0.3,0.3,0.6,0.5,0.9c0.3,0.2,0.6,0.4,0.9,0.4c0.9,0.2,1.7,0.3,2.6,0.5c2.9,0.6,2.4-0.1,2.5,3.1c0,0.1,0,0.3,0,0.4
	c0,0.1-0.1,0.2-0.2,0.3c-0.1,0.1-0.2,0.2-0.3,0.2S86.3,69.6,86.1,69.6z M66.8,60.1c-1.5,0-3,0.4-4.2,1.3c-1.2,0.8-2.2,2-2.8,3.4
	c-0.6,1.4-0.7,2.9-0.4,4.4c0.3,1.5,1,2.8,2.1,3.9c1.1,1.1,2.4,1.8,3.9,2.1c1.5,0.3,3,0.1,4.4-0.4c1.4-0.6,2.6-1.5,3.4-2.8
	c0.8-1.2,1.3-2.7,1.3-4.2c0-2-0.8-3.9-2.2-5.3C70.7,60.9,68.8,60.1,66.8,60.1z M66.8,72.5c-1,0-1.9-0.3-2.7-0.8
	c-0.8-0.5-1.4-1.3-1.8-2.2c-0.4-0.9-0.5-1.8-0.3-2.8c0.2-0.9,0.6-1.8,1.3-2.5c0.7-0.7,1.5-1.1,2.5-1.3c0.9-0.2,1.9-0.1,2.8,0.3
	c0.9,0.4,1.6,1,2.2,1.8c0.5,0.8,0.8,1.7,0.8,2.7c0,1.3-0.5,2.5-1.4,3.4C69.3,72,68,72.5,66.8,72.5z M34.8,21.6
	c-2.8,0-5.5,0.8-7.8,2.4c-2.3,1.5-4.1,3.7-5.2,6.3c-1.1,2.6-1.3,5.4-0.8,8.1c0.5,2.7,1.9,5.2,3.8,7.2c2,2,4.5,3.3,7.2,3.8
	c2.7,0.5,5.5,0.3,8.1-0.8c2.6-1.1,4.7-2.9,6.3-5.2c1.5-2.3,2.4-5,2.4-7.8c0-1.8-0.4-3.7-1.1-5.4c-0.7-1.7-1.7-3.2-3-4.5
	c-1.3-1.3-2.9-2.3-4.6-3C38.4,21.9,36.6,21.6,34.8,21.6L34.8,21.6z M34.8,46.3c-2.1,0-4.2-0.6-5.9-1.8c-1.8-1.2-3.1-2.8-3.9-4.8
	c-0.8-2-1-4.1-0.6-6.2s1.4-4,2.9-5.5c1.5-1.5,3.4-2.5,5.5-2.9c2.1-0.4,4.2-0.2,6.2,0.6c2,0.8,3.6,2.2,4.8,3.9
	c1.2,1.8,1.8,3.8,1.8,5.9c0,1.4-0.3,2.8-0.8,4.1c-0.5,1.3-1.3,2.5-2.3,3.5c-1,1-2.2,1.8-3.5,2.3C37.5,46,36.1,46.3,34.8,46.3
	L34.8,46.3z"/>
</svg>
