<?xml version="1.0" encoding="utf-8"?>
<!-- Generator: Adobe Illustrator 25.4.1, SVG Export Plug-In . SVG Version: 6.00 Build 0)  -->
<svg version="1.1" id="Layer_1" xmlns="http://www.w3.org/2000/svg" xmlns:xlink="http://www.w3.org/1999/xlink" x="0px" y="0px"
	 viewBox="0 0 81 90" style="enable-background:new 0 0 81 90;" xml:space="preserve">
<style type="text/css">
	.st0{fill:#FFFFFF;}
</style>
<path class="st0" d="M38.1,6.4c0,0.3,0,0.6,0.1,0.8c0.1,0.3,0.2,0.5,0.4,0.7c0.2,0.2,0.4,0.4,0.7,0.5c0.3,0.1,0.5,0.2,0.8,0.2h0.1
	c0.3,0,0.6-0.1,0.8-0.2c0.3-0.1,0.5-0.3,0.7-0.5C41.8,7.7,42,7.5,42,7.2c0.1-0.3,0.1-0.6,0.1-0.8c0-0.6,0-1.1,0-1.7s0-1.4,0-2.1
	c0-0.5,0-0.9-0.2-1.4c-0.2-0.4-0.4-0.8-0.8-1.1L41,0h-1.9L39,0.1c-0.3,0.3-0.5,0.6-0.7,1S38,1.8,38,2.2c0,0.7,0,1.4,0,2
	S38.1,5.7,38.1,6.4z M78.1,38h-0.9h-3.8c-0.5,0-1,0.2-1.4,0.5s-0.6,0.8-0.6,1.3c0,0.3,0,0.5,0,0.8c0.1,0.3,0.2,0.5,0.4,0.7
	c0.2,0.2,0.4,0.4,0.6,0.5s0.5,0.2,0.8,0.2c0.8,0.1,1.7,0.1,2.5,0.1s1.7,0,2.6-0.1c0.5,0,1-0.3,1.4-0.7c0.3-0.4,0.5-0.9,0.5-1.4
	s-0.2-1-0.6-1.4C79.2,38.2,78.6,38,78.1,38L78.1,38z M6.7,38H5.8H3H2.1c-0.3,0-0.5,0-0.8,0.1s-0.5,0.2-0.7,0.4s-0.4,0.4-0.5,0.6
	C0.1,39.4,0,39.7,0,40s0,0.5,0.1,0.8c0.1,0.2,0.2,0.5,0.4,0.6c0.2,0.2,0.4,0.3,0.6,0.4S1.6,42,1.8,42c0.9,0,1.7,0,2.5,0s1.7,0,2.6,0
	c0.3,0,0.5-0.1,0.8-0.2c0.2-0.1,0.5-0.3,0.6-0.5c0.2-0.2,0.3-0.4,0.4-0.7c0.1-0.3,0.1-0.5,0.1-0.8c0-0.5-0.3-1-0.6-1.3
	C7.7,38.2,7.2,38,6.7,38L6.7,38z M12.2,14.9c1,1,2,2,3,2.9c0.4,0.4,0.9,0.6,1.4,0.6s1-0.2,1.3-0.6c0.2-0.2,0.4-0.4,0.5-0.6
	s0.2-0.5,0.2-0.8c0-0.5-0.2-1-0.5-1.4c-0.9-1-1.9-1.9-2.8-2.9l-0.6-0.6c-0.4-0.3-0.8-0.5-1.4-0.6h-0.1c-0.4,0-0.7,0.1-1,0.3
	s-0.6,0.5-0.7,0.8c-0.2,0.4-0.2,0.8-0.2,1.2c0.1,0.4,0.3,0.8,0.5,1L12.2,14.9z M63.6,18.5c0.6,0,1.2-0.3,1.6-0.8
	c0.7-0.7,1.4-1.4,2.1-2.1l1-1c0.2-0.2,0.4-0.4,0.5-0.7s0.2-0.5,0.2-0.8c0-0.4-0.1-0.8-0.3-1.1c-0.2-0.3-0.5-0.6-0.9-0.8
	C67.5,11.1,67.3,11,67,11c-0.5,0-1,0.2-1.4,0.6c-1.3,1.2-2.3,2.3-3.3,3.3c-0.2,0.2-0.4,0.4-0.5,0.7s-0.2,0.5-0.2,0.8s0,0.6,0.1,0.8
	c0.1,0.3,0.3,0.5,0.5,0.7C62.6,18.2,63.1,18.4,63.6,18.5z M16.4,61.6L16.4,61.6h-0.2h-0.1c-0.2,0-0.5,0.1-0.7,0.3
	c-1.5,1.2-2.8,2.5-4,4c-0.1,0.2-0.3,0.4-0.3,0.6c-0.1,0.2-0.1,0.5,0,0.7s0.1,0.5,0.2,0.7c0.1,0.2,0.3,0.4,0.5,0.5
	c0.4,0.3,0.8,0.5,1.3,0.5c0.4,0,0.8-0.2,1.1-0.5c1.4-1.3,2.8-2.7,3.8-3.8c0.3-0.3,0.4-0.7,0.5-1c0-0.4-0.1-0.8-0.3-1.1
	c-0.2-0.3-0.5-0.6-0.8-0.7C17.1,61.6,16.8,61.6,16.4,61.6z M65.9,63l-0.7-0.7c-0.2-0.2-0.5-0.4-0.7-0.5c-0.3-0.1-0.6-0.2-0.9-0.2
	c-0.4,0-0.7,0.1-1,0.3s-0.5,0.5-0.7,0.8c-0.2,0.4-0.3,0.8-0.2,1.2c0.1,0.4,0.3,0.8,0.6,1.1c1.1,1.1,2.1,2.2,3.2,3.2
	c0.4,0.5,1,0.7,1.6,0.8c0.2,0,0.5-0.1,0.7-0.2s0.4-0.2,0.6-0.4c0.2-0.2,0.4-0.4,0.5-0.7c0.1-0.3,0.2-0.5,0.2-0.8s-0.1-0.6-0.2-0.8
	c-0.1-0.3-0.3-0.5-0.5-0.7C67.5,64.6,66.7,63.8,65.9,63z M63,46.1c0.1-1,0.2-1.9,0.2-2.9c0-5.7-2.1-11.3-6-15.5
	c-3.9-4.3-9.1-6.9-14.9-7.5s-11.4,1-16.1,4.4c-4.6,3.4-7.8,8.4-8.9,14.1c-0.7,3.3-0.6,6.6,0.1,9.9c0.8,3.2,2.2,6.3,4.2,8.9
	c1.7,2.1,3.7,4,6,5.4c0.7,0.4,1.3,1,1.7,1.8c0.4,0.7,0.6,1.6,0.6,2.4c0,1.3,0,2.7,0,3.9c0,0.4-0.1,0.6-0.3,0.7
	c-0.3,0.2-0.6,0.4-0.9,0.7c-0.2,0.3-0.4,0.6-0.5,1c-0.4,1.4-0.4,2.9,0.1,4.3c0.1,0.3,0.1,0.4,0.1,0.5c-0.5,1.3-0.7,2.7-0.3,4
	c0.1,0.7,0.5,1.3,0.9,1.7c0.5,0.5,1.1,0.8,1.8,0.9c0.5,0.1,1.1,0.1,1.6,0.1h1.7h0.1c0,0,0.1,0,0.1,0.1l0.1,0.1v0.1v0.3
	c0,0.7,0,1.3,0.1,2s0.5,1.4,1.1,1.9s1.3,0.7,2,0.7h4.7c0.7,0,1.5-0.2,2-0.7c0.6-0.5,0.9-1.2,1.1-1.9c0.1-0.6,0.1-1.2,0.1-1.9v-0.4
	v-0.1c0,0,0-0.1,0.1-0.1c0,0,0.1,0,0.1-0.1h0.1h1.3h1.2c0.8,0,1.6-0.2,2.2-0.7c0.6-0.5,1.1-1.1,1.3-1.9c0.4-1.4,0.3-2.8-0.3-4.1
	c0-0.1-0.1-0.1-0.1-0.2s0-0.1,0.1-0.2c0.5-1.2,0.6-2.5,0.4-3.7c-0.1-0.5-0.2-1-0.5-1.4s-0.6-0.8-1.1-1c-0.1-0.1-0.2-0.2-0.3-0.3
	c-0.1-0.1-0.1-0.2-0.1-0.4v-0.6c0-0.9,0-1.8,0-2.7c-0.1-1,0.1-2.1,0.6-3s1.2-1.6,2.1-2.1c1.2-0.7,2.3-1.6,3.3-2.6
	c3.8-3.6,6.2-8.4,6.9-13.5C63,46.3,63,46.2,63,46.1L63,46.1z M42.3,85.8c0,0.3,0,0.6,0,0.9c-0.2,0-0.4,0-0.5,0h-3.5
	c-0.2,0-0.3,0-0.3,0c0-0.1,0-0.2,0-0.2v-0.9c0-0.2,0-0.5,0-0.7h3.3H42h0.1c0.1,0,0.1,0,0.2,0c0,0,0,0.1,0,0.3V85.8z M48.7,81.5
	c-0.3,0.1-0.7,0.1-1,0.1H32.1c-0.2,0-0.4,0-0.6,0c-0.1-0.2-0.1-0.4-0.1-0.6c0-0.4,0-0.8,0.1-1.2c0.4-0.1,0.8-0.1,1.1-0.1H48
	c0.2,0,0.5,0,0.7,0.1c0.1,0.2,0.1,0.5,0.1,0.7C48.8,80.8,48.7,81.1,48.7,81.5L48.7,81.5z M48.7,76.2c0,0-0.1,0.1-0.4,0.1H32
	c-0.2,0-0.4,0-0.5,0c-0.1-0.2-0.1-0.4-0.1-0.6c0-0.4,0-0.8,0.1-1.2c0.4-0.1,0.8-0.1,1.2-0.1h15.2c0.3,0,0.5,0,0.8,0.1
	c0.1,0.3,0.1,0.5,0.1,0.8v0.2c0,0.1,0,0.3,0,0.4C48.7,76,48.7,76.1,48.7,76.2L48.7,76.2z M41.6,71.2h-3.3c0-2.3,0-7.3,0-18.7h3.3
	C41.5,63.8,41.5,68.8,41.6,71.2L41.6,71.2z M60,45.2c-0.1,0.2-0.2,0.4-0.3,0.7c0,0.1,0,0.1,0,0.2v0.1c-0.3,2.3-1.1,4.4-2.1,6.5
	c-1.6,3-3.9,5.5-6.8,7.3c-0.3,0.2-0.6,0.4-0.8,0.6c-1.5,1.1-2.6,2.8-3,4.6c-0.1,0.7-0.2,1.5-0.2,2.2c0,0.5,0,1,0,1.5s0,1.2,0,1.9
	c0,0.1,0,0.2,0,0.3c-0.1,0-0.2,0-0.3,0h-1.8c0-2.8,0-9.4,0-18.7h2.7c0.6,0,1.2-0.1,1.8-0.3s1.1-0.5,1.5-1c0.4-0.4,0.8-0.9,1-1.5
	s0.4-1.2,0.4-1.8S52,46.6,51.7,46c-0.2-0.6-0.6-1.1-1-1.5s-1-0.8-1.5-1c-0.6-0.2-1.2-0.3-1.8-0.3h-1.3c-1.2,0-2.3,0.5-3.2,1.3
	c-0.8,0.8-1.3,2-1.3,3.2v1.4h-3.3c0-0.5,0-0.9,0-1.4c0-1.2-0.5-2.3-1.3-3.2c-0.8-0.8-2-1.3-3.2-1.3h-1.3c-0.6,0-1.2,0.1-1.8,0.3
	c-0.6,0.2-1.1,0.5-1.5,1c-0.4,0.4-0.8,0.9-1,1.5s-0.4,1.2-0.4,1.8s0.1,1.2,0.4,1.8c0.2,0.6,0.6,1.1,1,1.5s1,0.8,1.5,1
	c0.6,0.2,1.2,0.3,1.8,0.3h2.7c0,9.3,0,16,0,18.7H35h-1.1h-0.1c-0.3,0-0.4-0.1-0.4-0.1s-0.1-0.1-0.1-0.4v-0.4
	c0.1-1.4,0.1-2.9-0.1-4.3c0-0.2-0.1-0.4-0.1-0.7c-0.4-1.9-1.5-3.6-3-4.7c-0.4-0.3-0.7-0.5-1.1-0.8c-3.3-2.2-5.9-5.4-7.4-9.2
	c-1.5-3.7-1.8-7.8-0.9-11.7s3-7.5,5.9-10.2c3-2.7,6.7-4.5,10.6-5c0.4,0,0.7-0.2,1.1-0.4c0.5,0,1.1-0.1,1.7-0.1c0.6,0,1.1,0,1.6,0.1
	c0.1,0.1,0.3,0.2,0.5,0.3c0.2,0.1,0.4,0.1,0.6,0.1h0.1c4.3,0.6,8.2,2.6,11.2,5.6c3.1,3.1,5.1,7.1,5.6,11.4c0,0.4,0.1,0.7,0.3,1
	c0,0.5,0.1,1.1,0.1,1.6C60.1,43.9,60,44.5,60,45.2L60,45.2z M44.7,49.3v-1.4c0-0.4,0.2-0.7,0.4-1c0.3-0.3,0.6-0.4,1-0.4h1.3
	c0.2,0,0.4,0,0.6,0.1c0.2,0.1,0.4,0.2,0.5,0.3s0.3,0.3,0.3,0.5c0.1,0.2,0.1,0.4,0.1,0.6c0,0.2,0,0.4-0.1,0.6
	c-0.1,0.2-0.2,0.3-0.3,0.5s-0.3,0.2-0.5,0.3s-0.4,0.1-0.6,0.1h-2.7V49.3z M35.1,49.3h-2.7c-0.2,0-0.4,0-0.6-0.1s-0.4-0.2-0.5-0.3
	S31,48.6,31,48.4c-0.1-0.2-0.1-0.4-0.1-0.6c0-0.2,0-0.4,0.1-0.6c0.1-0.2,0.2-0.3,0.3-0.5c0.1-0.1,0.3-0.2,0.5-0.3s0.4-0.1,0.6-0.1
	h1.3c0.4,0,0.7,0.2,1,0.4c0.3,0.3,0.4,0.6,0.4,1V49.3z"/>
</svg>
