<?xml version="1.0" encoding="utf-8"?>
<!-- Generator: Adobe Illustrator 25.4.1, SVG Export Plug-In . SVG Version: 6.00 Build 0)  -->
<svg version="1.1" id="Bahan_copy" xmlns="http://www.w3.org/2000/svg" xmlns:xlink="http://www.w3.org/1999/xlink" x="0px" y="0px"
	 viewBox="0 0 64 64" style="enable-background:new 0 0 64 64;" xml:space="preserve">
<path d="M36.5,41.3c5.9-4,3-13.5-4.2-13.5c-4.1,0-7.4,3.3-7.4,7.4c0,2.4,1.2,4.7,3.2,6.1c-6.3,2-9.6,7.3-9.1,13.7
	c0,1.5,1.2,2.7,2.7,2.7h21.2c1.5,0,2.7-1.2,2.7-2.7v-2.1C45.4,47.4,41.8,42.7,36.5,41.3z M26.9,35.2c0.2-7.1,10.6-7.1,10.8,0
	C37.5,42.3,27.1,42.3,26.9,35.2z M43.6,55c0,0.4-0.3,0.7-0.7,0.7H21.7c-0.4,0-0.7-0.3-0.7-0.7v-2.1c-0.1-5.8,5.6-10.4,11.3-10.3
	c6.2,0,11.3,4.6,11.3,10.3V55z M53.9,30.7c2.3-2,2.6-5.5,0.6-7.8c-2-2.3-5.5-2.6-7.8-0.6c-2.3,2-2.6,5.5-0.6,7.8
	c0.2,0.2,0.4,0.4,0.6,0.6c-4.1,1.4-6.6,5.5-6.1,9.8c0,1.2,1,2.2,2.2,2.2h15c1.2,0,2.2-1,2.2-2.2C60.5,36.2,58,32.1,53.9,30.7z
	 M50.3,23c1.9,0,3.5,1.6,3.5,3.6c0,1.9-1.6,3.5-3.5,3.5c-1.9,0-3.5-1.6-3.5-3.6C46.8,24.6,48.4,23,50.3,23z M58,40.5
	c0,0.1-0.1,0.2-0.2,0.2h-15c-0.1,0-0.2-0.1-0.2-0.2C41.7,29.2,59,29.4,58,40.5z M23.4,40.5c0.5-4.3-2-8.3-6.1-9.8
	c1.2-1,1.9-2.6,1.9-4.2c-0.2-7.3-10.8-7.3-11,0c0,1.6,0.7,3.1,1.9,4.2C6,32.1,3.5,36.2,4,40.5c0,1.2,1,2.2,2.2,2.2h15
	C22.4,42.6,23.4,41.7,23.4,40.5z M13.7,23L13.7,23c1.9,0,3.5,1.6,3.5,3.6c0,1.9-1.6,3.5-3.5,3.5c-1.9,0-3.5-1.6-3.5-3.6
	C10.2,24.6,11.8,23,13.7,23z M6,40.5c-0.9-11.3,16.4-11.1,15.4,0c0,0.1-0.1,0.2-0.2,0.2h-15C6.1,40.6,6,40.6,6,40.5z M23.5,15.3
	l3.4,2.4l-1.3,4c-0.3,1,0.2,2.2,1.3,2.5c0.6,0.2,1.3,0.1,1.8-0.3l3.4-2.5l3.4,2.5c0.9,0.6,2.1,0.4,2.8-0.4c0.4-0.5,0.5-1.2,0.3-1.8
	l-1.3-4l3.4-2.5c0.9-0.6,1.1-1.9,0.4-2.8c-0.4-0.5-1-0.8-1.6-0.8l-4.2,0l-1.3-4c-0.3-1-1.5-1.6-2.5-1.3c-0.6,0.2-1.1,0.7-1.3,1.3
	l-1.3,4h-4.2c-1.1,0-2,0.9-2,2C22.7,14.3,23,14.9,23.5,15.3z M28.8,13.7c0.9,0,1.6-0.5,1.9-1.4l1.2-4l1.3,4c0.3,0.8,1,1.4,1.9,1.4
	l4.2,0l-3.4,2.5c-0.7,0.5-1,1.4-0.7,2.2l1.3,4c-5.3-3.8-3.9-3.8-9.1,0l1.3-4c0.3-0.8,0-1.7-0.7-2.2l-3.4-2.4L28.8,13.7z"/>
</svg>
