<svg width="27" height="27" viewBox="0 0 27 27" fill="none" xmlns="http://www.w3.org/2000/svg">
<path d="M24.3 0H2.7C1.215 0 0 1.215 0 2.7V24.3C0 25.785 1.215 27 2.7 27H24.3C25.785 27 27 25.785 27 24.3V2.7C27 1.215 25.785 0 24.3 0ZM8.1 22.95H4.05V10.8H8.1V22.95ZM6.075 8.505C4.725 8.505 3.645 7.425 3.645 6.075C3.645 4.725 4.725 3.645 6.075 3.645C7.425 3.645 8.505 4.725 8.505 6.075C8.505 7.425 7.425 8.505 6.075 8.505ZM22.95 22.95H18.9V15.795C18.9 14.7151 17.955 13.77 16.875 13.77C15.795 13.77 14.85 14.7151 14.85 15.795V22.95H10.8V10.8H14.85V12.42C15.525 11.34 17.01 10.53 18.225 10.53C20.79 10.53 22.95 12.69 22.95 15.255V22.95Z" fill="#5C5C5C"/>
</svg>
