<?xml version="1.0" encoding="utf-8"?>
<!-- Generator: Adobe Illustrator 25.4.1, SVG Export Plug-In . SVG Version: 6.00 Build 0)  -->
<svg version="1.1" id="Layer_1" xmlns="http://www.w3.org/2000/svg" xmlns:xlink="http://www.w3.org/1999/xlink" x="0px" y="0px"
	 viewBox="0 0 96 70" style="enable-background:new 0 0 96 70;" xml:space="preserve">
<style type="text/css">
	.st0{fill:#FFFFFF;}
</style>
<path class="st0" d="M93.3,26.1h-1H88c-0.6,0-1.1,0.2-1.5,0.6c-0.4,0.4-0.7,0.9-0.7,1.4c0,0.3,0,0.6,0,0.9c0.1,0.3,0.2,0.6,0.4,0.8
	c0.2,0.2,0.4,0.4,0.7,0.6c0.3,0.1,0.6,0.2,0.9,0.2c0.9,0.1,1.9,0.2,2.8,0.1c0.9,0,1.9,0,2.9-0.1c0.3,0,0.6-0.1,0.9-0.2
	c0.3-0.1,0.5-0.3,0.7-0.5c0.2-0.2,0.4-0.5,0.4-0.8c0.1-0.3,0.1-0.6,0.1-0.9c0-0.6-0.3-1.1-0.7-1.5C94.5,26.3,93.9,26.1,93.3,26.1z
	 M85.2,15.2c0.7,0,1.3-0.3,1.8-0.9c0.8-0.8,1.6-1.6,2.4-2.4l1.1-1.1c0.3-0.2,0.5-0.6,0.7-0.9c0.1-0.4,0.2-0.7,0.1-1.1
	c0-0.4-0.2-0.7-0.4-1.1C90.6,7.4,90.3,7.2,90,7c-0.3-0.1-0.6-0.2-0.9-0.2c-0.6,0-1.1,0.2-1.5,0.7c-1.5,1.4-2.7,2.6-3.8,3.7
	c-0.2,0.2-0.4,0.5-0.6,0.7C83,12.2,83,12.5,83,12.8s0.1,0.6,0.2,0.9c0.1,0.3,0.3,0.6,0.5,0.8C84.1,14.9,84.6,15.2,85.2,15.2z
	 M87.8,41.3L87,40.5c-0.2-0.2-0.5-0.4-0.8-0.6c-0.3-0.1-0.6-0.2-1-0.2c-0.4,0-0.8,0.1-1.2,0.3c-0.4,0.2-0.6,0.5-0.8,0.9
	c-0.2,0.4-0.3,0.9-0.2,1.4c0.1,0.5,0.3,0.9,0.7,1.2c1.2,1.2,2.4,2.5,3.6,3.7c0.2,0.3,0.5,0.5,0.8,0.6c0.3,0.1,0.7,0.2,1,0.2
	c0.3,0,0.6-0.1,0.8-0.2c0.3-0.1,0.5-0.3,0.7-0.5c0.2-0.2,0.4-0.5,0.5-0.8c0.1-0.3,0.2-0.6,0.2-0.9c0-0.3-0.1-0.6-0.2-0.9
	c-0.1-0.3-0.3-0.5-0.6-0.7C89.6,43.1,88.7,42.2,87.8,41.3z M75.3,19c-1.3-1.1-2.9-1.9-4.6-2.2c-0.7-0.1-0.8-0.4-0.8-1
	c0-3.8,0-7.7,0-11.6c0-0.7-0.1-1.5-0.5-2.1C69,1.5,68.5,1,67.9,0.6C67.2,0.2,66.5,0,65.8,0c-0.7,0-1.5,0.2-2.1,0.6
	C53.6,6.2,42.5,9.9,31,11.4c-5.8,0.8-11.6,0.5-17.4,0.6c-1.2,0-2.3,0.3-3.3,0.9c-1,0.6-1.8,1.5-2.3,2.6c-0.1,0.1-0.1,0.2-0.2,0.4
	c-0.6,1.4-0.6,1.5-2.1,1.4c-1.3-0.1-2.5,0.2-3.6,0.9c-1,0.7-1.8,1.8-2.1,3v13.2c0.3,1.2,0.9,2.2,1.8,2.9c0.9,0.7,2.1,1.1,3.3,1.1
	c0.5,0,1,0.1,1.6,0c0.1,0,0.2,0,0.3,0c0.1,0,0.2,0.1,0.3,0.1c0.1,0.1,0.2,0.2,0.2,0.2c0.1,0.1,0.1,0.2,0.1,0.3
	c0.1,0.6,0.3,1.2,0.7,1.7c0.3,0.5,0.8,1,1.3,1.3c1.3,0.1,2.5,0.1,3.6,0.2v24.8c0,0.4,0.1,0.8,0.2,1.1c0.1,0.4,0.4,0.7,0.6,0.9
	c0.3,0.3,0.6,0.5,0.9,0.6c0.4,0.1,0.7,0.2,1.1,0.2h8.4c0.9,0,1.7-0.3,2.3-1c0.6-0.6,1-1.4,1-2.3v-8.2V43.8l2,0.2
	c3.5,0.4,6.9,1,10.3,1.8c8.3,1.9,16.2,5,23.7,9.1c0.9,0.6,1.9,0.8,2.9,0.6c1-0.1,1.9-0.6,2.5-1.4c0.6-0.8,1-1.7,0.9-2.7
	c0-3.9,0-7.8,0-11.7c0-0.2,0.1-0.5,0.2-0.7c0.2-0.2,0.4-0.3,0.6-0.3c2.1-0.4,4.1-1.5,5.6-3c1.7-1.7,2.8-3.9,3.2-6.3
	c0-1,0-1.9,0.1-2.8C79.2,23.7,77.7,20.9,75.3,19z M6.7,34.3c-0.5,0-1,0-1.6,0c-1,0-1.4-0.7-1-2c0.8-3,0.8-6.1,0-9.1
	c-0.3-1.2,0.1-1.7,1-1.8c2.4-0.2,2.4-0.2,2.4,2.2v4.3c0,1.9,0,3.8,0,5.8c0,0.1,0,0.2-0.1,0.3c0,0.1-0.1,0.2-0.2,0.2
	C7.1,34.2,7,34.3,7,34.3S6.8,34.3,6.7,34.3z M13.6,39.6c-1.9,0-2.7-1.3-2.1-3.7c1.2-5.3,1.2-10.7,0-16C11,17.3,11.6,16,13.6,16
	c3.1,0,6.3,0,9.4,0c0.7,0,0.8,0.3,0.8,0.9c0,3.7,0,7.3,0,11s0,7.2,0,10.8c0,0.7-0.2,0.9-0.9,0.9C19.9,39.6,16.8,39.6,13.6,39.6
	L13.6,39.6z M24,65.5c0,0.2-0.1,0.5-0.3,0.7c-0.2,0.2-0.4,0.3-0.7,0.3h-5.6c-0.1,0-0.2,0-0.4-0.1c-0.1,0-0.2-0.1-0.3-0.2
	c-0.1-0.1-0.2-0.2-0.2-0.3c0-0.1-0.1-0.2-0.1-0.4V43.2h7l0.5,0.5L24,65.5z M65,51.2c-3.1-1.7-6.2-3.2-9.4-4.6
	c-6.8-2.8-14-4.9-21.3-6c-2-0.3-3.9-0.6-5.9-0.8c-0.4,0-0.6-0.2-0.6-0.6c0-0.2,0-0.3,0-0.5c0-7.3,0-14.7,0-22c0-0.8,0.3-1.1,1-1.1
	c6.8-0.7,13.5-2.1,20-4.2c5.5-1.8,10.7-4.1,15.8-6.8l0.7-0.4c0.3-0.2,0.5-0.2,0.5,0.3c0,0.2,0,0.4,0,0.6v45c0,0.2,0,0.4,0,0.6
	C65.8,51.4,65.6,51.5,65,51.2L65,51.2z M70.5,34.6c-0.6,0.2-0.7,0-0.7-0.5c0-2.1,0-4.2,0-6.3c0-2.1,0-4.2,0-6.3
	c0-0.6,0.1-0.8,0.7-0.6c1.4,0.5,2.7,1.4,3.6,2.6c0.9,1.2,1.4,2.7,1.4,4.2c0,1.5-0.5,3-1.4,4.2C73.2,33.2,72,34.2,70.5,34.6
	L70.5,34.6z"/>
</svg>
