<svg width="36" height="25" viewBox="0 0 36 25" fill="none" xmlns="http://www.w3.org/2000/svg">
<path d="M32.425 0H3.125C2.2962 0 1.50135 0.329247 0.915299 0.915298C0.329247 1.50135 0 2.2962 0 3.125V21.875C0.00219955 22.7031 0.332152 23.4967 0.917727 24.0823C1.5033 24.6679 2.29687 24.9978 3.125 25H32.425C33.2538 25 34.0487 24.6708 34.6347 24.0847C35.2208 23.4986 35.55 22.7038 35.55 21.875V3.125C35.55 2.2962 35.2208 1.50135 34.6347 0.915298C34.0487 0.329247 33.2538 0 32.425 0ZM31.9917 2.08333L19.9833 14.025C19.6938 14.3158 19.3496 14.5465 18.9707 14.7039C18.5917 14.8613 18.1854 14.9424 17.775 14.9424C17.3646 14.9424 16.9583 14.8613 16.5793 14.7039C16.2004 14.5465 15.8562 14.3158 15.5667 14.025L3.55834 2.08333H31.9917ZM2.08333 21.45V3.55001L11.1083 12.5L2.08333 21.45ZM3.55834 22.9167L12.5583 13.975L14.0917 15.5C14.5753 15.9838 15.1495 16.3676 15.7815 16.6294C16.4135 16.8912 17.0909 17.026 17.775 17.026C18.4591 17.026 19.1365 16.8912 19.7685 16.6294C20.4005 16.3676 20.9747 15.9838 21.4583 15.5L22.9917 13.975L31.9917 22.9167H3.55834ZM33.4667 21.45L24.4417 12.5L33.4417 3.54167L33.4667 21.45Z" fill="#5C5C5C"/>
</svg>
