<svg width="28" height="25" viewBox="0 0 28 25" fill="none" xmlns="http://www.w3.org/2000/svg">
<path d="M23.2005 0H3.85794C2.83527 0.00167698 1.85496 0.408676 1.13182 1.13182C0.408676 1.85496 0.00167698 2.83527 0 3.85794L0 16.9115C0.00167698 17.9342 0.408676 18.9145 1.13182 19.6377C1.85496 20.3608 2.83527 20.7678 3.85794 20.7695H5.37311L5.40271 24.1777C5.40409 24.3316 5.44839 24.4821 5.53064 24.6122C5.61289 24.7423 5.72982 24.8469 5.86828 24.9142C6.00673 24.9814 6.16121 25.0088 6.31433 24.993C6.46746 24.9773 6.61315 24.9191 6.73502 24.8251L11.9897 20.7695H23.2005C24.2232 20.7678 25.2035 20.3608 25.9266 19.6377C26.6498 18.9145 27.0568 17.9342 27.0585 16.9115V3.85794C27.0568 2.83527 26.6498 1.85496 25.9266 1.13182C25.2035 0.408676 24.2232 0.00167698 23.2005 0ZM25.4064 16.9115C25.4057 17.4964 25.1731 18.057 24.7595 18.4706C24.346 18.8841 23.7853 19.1167 23.2005 19.1174H11.7097C11.5268 19.1175 11.3492 19.1781 11.2044 19.2897L7.04418 22.5003L7.02199 19.9376C7.02017 19.7195 6.93224 19.5109 6.77732 19.3572C6.62241 19.2036 6.41308 19.1174 6.19491 19.1174H3.85794C3.27348 19.1162 2.71335 18.8833 2.30028 18.4698C1.8872 18.0563 1.65486 17.496 1.65416 16.9115V3.85794C1.65542 3.27385 1.888 2.71404 2.30102 2.30102C2.71404 1.888 3.27385 1.65542 3.85794 1.65416H23.2005C23.785 1.65542 24.3451 1.8883 24.7582 2.30177C25.1713 2.71524 25.4036 3.2756 25.4043 3.86006V16.9136L25.4064 16.9115Z" fill="#858585"/>
</svg>
