<?xml version="1.0" encoding="utf-8"?>
<!-- Generator: Adobe Illustrator 25.4.1, SVG Export Plug-In . SVG Version: 6.00 Build 0)  -->
<svg version="1.1" id="Layer_1" xmlns="http://www.w3.org/2000/svg" xmlns:xlink="http://www.w3.org/1999/xlink" x="0px" y="0px"
	 viewBox="0 0 105 77" style="enable-background:new 0 0 105 77;" xml:space="preserve">
<style type="text/css">
	.st0{fill:#FFFFFF;}
</style>
<path class="st0" d="M66.6,55.4c-1.9-1.4-4.1-2.4-6.4-2.9l0.7-0.7c1.2-1.3,2-2.7,2.6-4.4c0.5-1.6,0.7-3.3,0.5-5
	c-0.2-1.7-0.7-3.3-1.6-4.8c-0.9-1.5-2.1-2.7-3.5-3.7c-1.6-1-3.3-1.7-5.1-2.1h-3.2C50.4,32,50.1,32,49.9,32c-2.1,0.4-4,1.3-5.6,2.7
	c-1.6,1.4-2.8,3.2-3.4,5.3c-0.7,2-0.9,4.2-0.4,6.2c0.4,2.1,1.5,4,2.9,5.5l0.6,0.7c-0.1,0.1-0.1,0.1-0.2,0.2l-0.7,0.2
	c-6,1.8-9.8,5.8-11.1,12c-0.7,3.2-0.2,6.5-0.2,9.8c0,1,0.8,1.6,1.9,1.6h36.9c1.3,0,1.9-0.6,2-2c0-2.4,0.1-4.7,0-7.1
	c-0.1-2.3-0.6-4.5-1.7-6.5C69.9,58.5,68.4,56.7,66.6,55.4z M43.6,43.7c0-1.7,0.5-3.3,1.4-4.7c0.9-1.4,2.3-2.5,3.8-3.1
	c1.6-0.6,3.3-0.8,4.9-0.5c1.7,0.3,3.2,1.1,4.4,2.3c1.2,1.2,2,2.7,2.3,4.4c0.3,1.7,0.2,3.4-0.5,4.9c-0.7,1.6-1.7,2.9-3.2,3.8
	c-1.4,0.9-3.1,1.4-4.7,1.4c-2.2,0-4.4-0.9-6-2.5C44.5,48,43.7,45.9,43.6,43.7L43.6,43.7z M68.2,72.7c-5.4,0-10.8,0-16.1,0
	s-10.6,0-15.9,0c-0.8,0-1.1-0.2-1-1.1c0.1-2.1-0.2-4.2,0.2-6.3c0.5-2.6,1.8-4.9,3.7-6.6c2-1.7,4.4-2.8,7-2.9c4-0.2,8.1-0.2,12.1,0
	c2.9,0.2,5.6,1.5,7.6,3.6c2,2.1,3.2,4.8,3.3,7.7c0.1,1.6,0,3.2,0,4.8C69.2,72.5,68.9,72.6,68.2,72.7L68.2,72.7z M104.3,60.7
	c-0.1-2.3-0.6-4.5-1.6-6.5c-1-2-2.5-3.8-4.3-5.1c-1.9-1.4-4-2.4-6.3-2.9c0.3-0.3,0.4-0.5,0.6-0.7c1.2-1.3,2-2.7,2.6-4.4
	c0.5-1.6,0.7-3.3,0.5-5c-0.2-1.7-0.7-3.3-1.6-4.8c-0.9-1.5-2.1-2.7-3.5-3.7c-1.6-1-3.3-1.7-5.1-2.1h-3.2c-0.2,0.2-0.4,0.2-0.6,0.2
	c-2.1,0.4-4,1.3-5.6,2.7c-1.6,1.4-2.8,3.2-3.4,5.3c-0.7,2-0.9,4.2-0.4,6.2c0.4,2.1,1.5,4,2.9,5.5l0.6,0.7c-0.1,0.1-0.1,0.1-0.2,0.1
	c-0.2,0.1-0.5,0.1-0.7,0.2c-2.5,0.7-4.8,2-6.7,3.7c0.6,0.4,1.1,0.7,1.6,1.2c0.4,0.3,0.8,0.6,1.1,0.9c1.9-1.7,4.4-2.7,7-2.9
	c4-0.2,8.1-0.2,12.1,0c2.9,0.2,5.6,1.5,7.6,3.6c2,2.1,3.2,4.8,3.3,7.7c0.1,1.6,0,3.2,0,4.8c0,0.7-0.2,0.9-0.9,0.9
	c-5.4,0-10.8,0-16.1,0h-6.2v0.5c0,1,0,2,0,2.9h24.6c1.3,0,1.9-0.6,2-2C104.4,65.4,104.4,63,104.3,60.7L104.3,60.7z M83.9,45.9
	c-1.7,0-3.3-0.5-4.7-1.5c-1.4-0.9-2.5-2.3-3.1-3.8c-0.6-1.6-0.8-3.3-0.4-4.9s1.2-3.2,2.4-4.3c1.2-1.2,2.7-2,4.4-2.3
	c1.7-0.3,3.4-0.1,4.9,0.5c1.5,0.7,2.9,1.8,3.8,3.2c0.9,1.4,1.4,3.1,1.4,4.7c0,2.2-0.9,4.4-2.5,5.9C88.3,45,86.1,45.9,83.9,45.9
	L83.9,45.9z M46.2,24.9c4-0.2,8.1-0.2,12.1,0c2,0.2,4,0.8,5.7,2c1.7,1.1,3,2.7,3.9,4.5c0.5-1.3,1.1-2.5,1.8-3.6
	c-0.9-1.2-1.9-2.3-3.1-3.2c-1.9-1.4-4-2.4-6.3-2.9L61,21c1.2-1.3,2-2.7,2.6-4.4c0.5-1.6,0.7-3.3,0.5-5c-0.2-1.7-0.7-3.3-1.6-4.8
	C61.5,5.3,60.4,4,59,3.1c-1.6-1-3.3-1.7-5.1-2.1h-3.2c-0.2,0.2-0.4,0.2-0.6,0.2c-2.1,0.4-4,1.3-5.6,2.7c-1.6,1.4-2.8,3.2-3.4,5.3
	c-0.7,2-0.9,4.2-0.4,6.2c0.4,2.1,1.5,4,2.9,5.5l0.6,0.7c-0.1,0.1-0.1,0.1-0.2,0.1c-0.2,0.1-0.4,0.1-0.7,0.2c-3.4,0.9-6.4,3-8.5,5.9
	c0.8,1.1,1.4,2.3,1.8,3.6c0.9-1.8,2.3-3.4,4-4.6C42.2,25.7,44.2,25,46.2,24.9z M43.7,12.9c0-1.7,0.5-3.3,1.4-4.7
	c0.9-1.4,2.3-2.5,3.8-3.1s3.3-0.8,4.9-0.5s3.2,1.1,4.4,2.3c1.2,1.2,2,2.7,2.3,4.4c0.3,1.7,0.2,3.4-0.5,4.9c-0.7,1.6-1.7,2.9-3.2,3.8
	c-1.4,0.9-3.1,1.4-4.7,1.4c-2.3,0-4.4-0.9-6-2.5C44.6,17.3,43.7,15.2,43.7,12.9L43.7,12.9z M4.4,66.3c-0.8,0-1.1-0.2-1-1
	c0.1-2.1-0.2-4.3,0.2-6.4c0.5-2.6,1.8-4.9,3.7-6.6c2-1.7,4.4-2.8,7-2.9c4-0.2,8.1-0.2,12.2,0c2.5,0.2,4.9,1.2,6.8,2.8
	c0.9-0.7,1.8-1.4,2.7-2c-0.4-0.4-0.8-0.7-1.2-1.1c-1.9-1.4-4-2.4-6.3-2.9c0.3-0.3,0.4-0.5,0.6-0.7c1.2-1.3,2-2.7,2.6-4.4
	c0.5-1.6,0.7-3.3,0.5-5c-0.2-1.7-0.7-3.3-1.6-4.8c-0.9-1.5-2.1-2.7-3.5-3.7c-1.6-1-3.3-1.7-5.1-2.1h-3.2c-0.2,0.2-0.4,0.2-0.6,0.2
	c-2.1,0.4-4,1.3-5.6,2.7c-1.6,1.4-2.8,3.2-3.4,5.3c-0.7,2-0.9,4.2-0.4,6.2c0.4,2.1,1.5,4,2.9,5.5l0.6,0.7c-0.1,0.1-0.1,0.1-0.2,0.1
	c-0.2,0.1-0.5,0.1-0.7,0.2c-6,1.8-9.8,5.8-11.1,12c-0.6,3.2-0.2,6.5-0.2,9.7c0,1,0.7,1.6,1.9,1.6h24.5c0-1.1,0-2.2,0.1-3.4h-6.2
	C15,66.3,9.7,66.3,4.4,66.3L4.4,66.3z M11.9,37.3c0-1.7,0.5-3.3,1.4-4.7c0.9-1.4,2.3-2.5,3.8-3.1c1.6-0.6,3.3-0.8,4.9-0.5
	c1.7,0.3,3.2,1.1,4.4,2.3c1.2,1.2,2,2.7,2.3,4.4c0.3,1.7,0.2,3.4-0.5,4.9c-0.7,1.6-1.7,2.9-3.2,3.8c-1.4,0.9-3.1,1.4-4.7,1.4
	c-2.3,0-4.4-0.9-6-2.5C12.8,41.8,11.9,39.6,11.9,37.3L11.9,37.3z"/>
</svg>
