<svg width="30" height="30" viewBox="0 0 30 30" fill="none" xmlns="http://www.w3.org/2000/svg">
<path d="M23.1559 17.5831L23.1413 17.5684L23.1342 17.562L21.4543 15.8821C20.987 15.4146 20.3535 15.1513 19.6925 15.1496C19.0315 15.148 18.3967 15.4082 17.927 15.8733L17.917 15.8833L17.0241 16.7786L12.9114 12.6641L13.8044 11.7711L13.8137 11.7618C14.2785 11.2918 14.5386 10.6571 14.537 9.99612C14.5355 9.33514 14.2725 8.70161 13.8055 8.23384L12.128 6.5563L12.1192 6.54693C11.6512 6.0798 11.0172 5.81705 10.3559 5.81617C9.69464 5.8153 9.05995 6.07636 8.59068 6.54224L8.57193 6.56158L7.80201 7.3315L7.07369 8.06041C5.88365 9.24986 5.60591 11.1465 6.29029 13.4001C6.91783 15.4643 8.29771 17.6358 10.1756 19.5143C12.7977 22.1364 16.0092 23.7647 18.5545 23.7647C19.8143 23.7647 20.8772 23.368 21.6249 22.6204L22.5811 21.6641L23.143 21.1022C23.6044 20.6377 23.8656 20.0109 23.8705 19.3562C23.8754 18.7015 23.6238 18.0709 23.1694 17.5995C23.1653 17.5936 23.1606 17.5883 23.1559 17.5831ZM21.9049 19.8553L21.8891 19.8717L21.3395 20.4208L20.3862 21.3741C19.9661 21.7942 19.3502 22.0069 18.5557 22.0069C16.4897 22.0069 13.6883 20.542 11.419 18.2715C9.74087 16.5934 8.51685 14.6821 7.97252 12.8891C7.49205 11.3071 7.61744 10.0022 8.31705 9.30259L9.82759 7.79205L9.8358 7.78326C9.97499 7.64857 10.1613 7.57351 10.3549 7.57406C10.5486 7.57461 10.7345 7.65071 10.8729 7.78619L10.8794 7.79205L12.5633 9.47662C12.7023 9.616 12.7803 9.80479 12.7803 10.0016C12.7803 10.1984 12.7023 10.3872 12.5633 10.5266L11.0493 12.0413C10.8845 12.2061 10.7919 12.4296 10.7919 12.6627C10.7919 12.8957 10.8845 13.1192 11.0493 13.284L16.4042 18.6389C16.4858 18.7206 16.5827 18.7854 16.6894 18.8296C16.796 18.8738 16.9104 18.8965 17.0258 18.8965C17.1413 18.8965 17.2556 18.8738 17.3623 18.8296C17.469 18.7854 17.5659 18.7206 17.6475 18.6389L19.1522 17.1336L19.168 17.1178C19.3079 16.981 19.4961 16.9048 19.6918 16.9058C19.8874 16.9068 20.0748 16.9848 20.2133 17.1231L21.8926 18.8024L21.8967 18.8065L21.902 18.8118C22.0393 18.9506 22.1165 19.1377 22.1171 19.3329C22.1176 19.5282 22.0414 19.7158 21.9049 19.8553ZM25.4504 4.23951C22.6238 1.49433 18.8305 -0.0283949 14.8904 0.0004011C10.9502 0.0291971 7.17959 1.6072 4.3934 4.3934C1.6072 7.17959 0.0291971 10.9502 0.0004011 14.8904C-0.0283949 18.8305 1.49433 22.6238 4.23951 25.4504C7.06613 28.1956 10.8594 29.7183 14.7996 29.6896C18.7397 29.6608 22.5104 28.0827 25.2966 25.2966C28.0827 22.5104 29.6608 18.7397 29.6896 14.7996C29.7183 10.8594 28.1956 7.06613 25.4504 4.23951ZM14.845 28.0872C7.54302 28.0872 1.60279 22.1463 1.60279 14.845C1.60279 7.54361 7.54302 1.60279 14.845 1.60279C22.1469 1.60279 28.0872 7.54361 28.0872 14.845C28.0872 22.1463 22.1463 28.0872 14.845 28.0872Z" fill="#858585"/>
</svg>
