<?xml version="1.0" encoding="utf-8"?>
<!-- Generator: Adobe Illustrator 25.4.1, SVG Export Plug-In . SVG Version: 6.00 Build 0)  -->
<svg version="1.1" id="svg1137" xmlns:svg="http://www.w3.org/2000/svg"
	 xmlns="http://www.w3.org/2000/svg" xmlns:xlink="http://www.w3.org/1999/xlink" x="0px" y="0px" viewBox="0 0 100 108.5"
	 style="enable-background:new 0 0 100 108.5;" xml:space="preserve">
<style type="text/css">
	.st0{fill:#FFFFFF;}
</style>
<g>
	<g id="g1153" transform="translate(476.9351,170.9365)">
		<path class="st0" d="M-420.8-62.4c-1.4,0-2.8-0.6-3.9-1.6c-1.4-1.4-2-3.5-1.4-5.4l1.3-4.5c0.6-2,1.7-3.9,3.2-5.4l30.4-30.4
			c2.7-2.7,7.2-2.7,10,0l2.2,2.2c1.3,1.3,2.1,3.1,2.1,5c0,1.9-0.7,3.7-2.1,5l-30.4,30.4c-1.5,1.5-3.4,2.6-5.4,3.2l-4.5,1.3
			C-419.8-62.5-420.3-62.4-420.8-62.4z M-386.2-108.6c-1,0-2,0.4-2.7,1.1l-30.4,30.4c-1.1,1.1-1.9,2.5-2.4,4l-1.3,4.5
			c-0.2,0.8,0,1.7,0.6,2.3c0.6,0.6,1.5,0.8,2.3,0.6l4.5-1.3c1.5-0.4,2.9-1.3,4-2.4l30.4-30.4l0,0c0.7-0.7,1.1-1.7,1.1-2.7
			c0-1-0.4-2-1.1-2.7l-2.2-2.2C-384.2-108.3-385.2-108.6-386.2-108.6z"/>
	</g>
	<g id="g1157" transform="translate(91.3735,58.0493)">
		<path class="st0" d="M-37.2,39.7h-39c-0.9,0-1.6-0.7-1.6-1.6c0-0.9,0.7-1.6,1.6-1.6h39c0.9,0,1.6,0.7,1.6,1.6
			C-35.6,39-36.4,39.7-37.2,39.7z"/>
	</g>
	<g id="g1161" transform="translate(377.0342,473.7905)">
		<path class="st0" d="M-369.3-376.4c-0.2,0-0.3,0-0.5-0.1c-4.3-1.3-7.2-5.3-7.2-9.8v-77.2c0-5.7,4.6-10.3,10.3-10.3h56.9
			c4.7,0,8.8,3.2,10,7.7c0.2,0.8-0.3,1.7-1.1,1.9c-0.8,0.2-1.7-0.3-1.9-1.1c-0.8-3.1-3.6-5.3-6.9-5.3h-56.9c-3.9,0-7.1,3.2-7.1,7.1
			v77.2c0,3.1,2,5.9,5,6.8c0.8,0.3,1.3,1.2,1,2C-368-376.8-368.7-376.4-369.3-376.4z"/>
	</g>
	<g id="g1165" transform="translate(378.3511,166.3013)">
		<path class="st0" d="M-302.4-91.5c-0.9,0-1.6-0.7-1.6-1.6v-57.6c0-0.9,0.7-1.6,1.6-1.6c0.9,0,1.6,0.7,1.6,1.6v57.6
			C-300.8-92.2-301.5-91.5-302.4-91.5z"/>
	</g>
	<g id="g1169" transform="translate(346.1826,87.1587)">
		<path class="st0" d="M-277.1,4.4c-0.4,0-0.8-0.2-1.1-0.5c-0.6-0.6-0.6-1.6,0-2.2l5-5c0.6-0.6,1.6-0.6,2.2,0c0.6,0.6,0.6,1.6,0,2.2
			l-5,5C-276.3,4.3-276.7,4.4-277.1,4.4z"/>
	</g>
	<g id="g1173" transform="translate(136.3545,154.4883)">
		<path class="st0" d="M-117.1-71.8c-3.8,0-7-3.1-7-7c0-3.8,3.1-7,7-7c3.8,0,7,3.1,7,7C-110.1-74.9-113.2-71.8-117.1-71.8z
			 M-117.1-82.5c-2.1,0-3.8,1.7-3.8,3.8c0,2.1,1.7,3.8,3.8,3.8c2.1,0,3.8-1.7,3.8-3.8C-113.3-80.8-115-82.5-117.1-82.5z"/>
	</g>
	<g id="g1177" transform="translate(191.3867,154.4883)">
		<path class="st0" d="M-129.3-77.1h-25.8c-0.9,0-1.6-0.7-1.6-1.6c0-0.9,0.7-1.6,1.6-1.6h25.8c0.9,0,1.6,0.7,1.6,1.6
			C-127.7-77.9-128.4-77.1-129.3-77.1z"/>
	</g>
	<g id="g1181" transform="translate(136.3545,249.2856)">
		<path class="st0" d="M-117.1-186.7c-3.8,0-7-3.1-7-7c0-3.8,3.1-7,7-7c3.8,0,7,3.1,7,7C-110.1-189.8-113.2-186.7-117.1-186.7z
			 M-117.1-197.4c-2.1,0-3.8,1.7-3.8,3.8c0,2.1,1.7,3.8,3.8,3.8c2.1,0,3.8-1.7,3.8-3.8C-113.3-195.7-115-197.4-117.1-197.4z"/>
	</g>
	<g id="g1185" transform="translate(191.3867,249.2856)">
		<path class="st0" d="M-129.3-192h-25.8c-0.9,0-1.6-0.7-1.6-1.6c0-0.9,0.7-1.6,1.6-1.6h25.8c0.9,0,1.6,0.7,1.6,1.6
			C-127.7-192.7-128.4-192-129.3-192z"/>
	</g>
	<g id="g1189" transform="translate(191.3867,344.0835)">
		<path class="st0" d="M-129.3-306.9h-25.8c-0.9,0-1.6-0.7-1.6-1.6s0.7-1.6,1.6-1.6h25.8c0.9,0,1.6,0.7,1.6,1.6
			S-128.4-306.9-129.3-306.9z"/>
	</g>
	<g id="g1193" transform="translate(80.1118,346.1152)">
		<path class="st0" d="M-63.6-305.6c-0.4,0-0.8-0.2-1.1-0.5l-3.7-3.7c-0.6-0.6-0.6-1.6,0-2.2c0.6-0.6,1.6-0.6,2.2,0l2.6,2.6l8.2-8.2
			c0.6-0.6,1.6-0.6,2.2,0c0.6,0.6,0.6,1.6,0,2.2l-9.4,9.4C-62.8-305.8-63.2-305.6-63.6-305.6z"/>
	</g>
	<g id="g1197" transform="translate(279.1074,412.5483)">
		<path class="st0" d="M-224.2-389.9h-32.3c-3.2,0-5.8-2.6-5.8-5.8v-3.7c0-3.2,2.6-5.8,5.8-5.8h32.3c3.2,0,5.8,2.6,5.8,5.8v3.7
			C-218.4-392.5-221-389.9-224.2-389.9z M-256.5-402c-1.4,0-2.6,1.2-2.6,2.6v3.7c0,1.4,1.2,2.6,2.6,2.6h32.3c1.4,0,2.6-1.2,2.6-2.6
			v-3.7c0-1.4-1.2-2.6-2.6-2.6H-256.5z"/>
	</g>
	<g id="g1201" transform="translate(321.5034,18.6328)">
		<path class="st0" d="M-257.6,87.5c-0.4,0-0.8-0.2-1.1-0.5l-9.3-9.3c-0.6-0.6-0.6-1.6,0-2.2c0.6-0.6,1.6-0.6,2.2,0l9.3,9.3
			c0.6,0.6,0.6,1.6,0,2.2C-256.8,87.3-257.2,87.5-257.6,87.5z"/>
	</g>
	<g id="g1205" transform="translate(406.3955,194.3457)">
		<path class="st0" d="M-314.6-115.5c-0.4,0-0.8-0.2-1.1-0.5l-10-10c-0.6-0.6-0.6-1.6,0-2.2c0.6-0.6,1.6-0.6,2.2,0l10,10
			c0.6,0.6,0.6,1.6,0,2.2C-313.8-115.7-314.2-115.5-314.6-115.5z"/>
	</g>
	<g id="g1209" transform="translate(424.7666,118.7681)">
		<path class="st0" d="M-339-33.9c-0.4,0-0.8-0.2-1.1-0.5l-10-10c-0.6-0.6-0.6-1.6,0-2.2c0.6-0.6,1.6-0.6,2.2,0l10,10
			c0.6,0.6,0.6,1.6,0,2.2C-338.2-34-338.6-33.9-339-33.9z"/>
	</g>
</g>
</svg>
