<?xml version="1.0" encoding="utf-8"?>
<!-- Generator: Adobe Illustrator 25.4.1, SVG Export Plug-In . SVG Version: 6.00 Build 0)  -->
<svg version="1.1" id="Capa_1" xmlns="http://www.w3.org/2000/svg" xmlns:xlink="http://www.w3.org/1999/xlink" x="0px" y="0px"
	 viewBox="0 0 100 101.6" style="enable-background:new 0 0 100 101.6;" xml:space="preserve">
<style type="text/css">
	.st0{fill:#FFFFFF;}
</style>
<g>
	<g>
		<g>
			<path class="st0" d="M66.8,8.1H40.9c-0.8,0-1.5,0.7-1.5,1.5c0,0.8,0.7,1.5,1.5,1.5h25.9c0.8,0,1.5-0.7,1.5-1.5
				C68.3,8.8,67.7,8.1,66.8,8.1z"/>
		</g>
	</g>
	<g>
		<g>
			<path class="st0" d="M52.4,14.6H40.9c-0.8,0-1.5,0.7-1.5,1.5c0,0.8,0.7,1.5,1.5,1.5h11.5c0.8,0,1.5-0.7,1.5-1.5
				C54,15.2,53.3,14.6,52.4,14.6z"/>
		</g>
	</g>
	<g>
		<g>
			<path class="st0" d="M94.3,14.8c-0.8,0-1.5,0.7-1.5,1.5c0,0.8,0.7,1.5,1.5,1.5c1.5,0,2.7,1.2,2.7,2.7v42.9H86V17.8h2.5
				c0.8,0,1.5-0.7,1.5-1.5c0-0.8-0.7-1.5-1.5-1.5H86V4.5C86,2,83.9,0,81.4,0H18.2c-2.5,0-4.5,2-4.5,4.5v10.3H5.7
				c-3.2,0-5.7,2.6-5.7,5.7V65v13.9c0,3.2,2.6,5.7,5.7,5.7H15c0.8,0,1.5-0.7,1.5-1.5c0-0.8-0.7-1.5-1.5-1.5H5.7
				c-1.5,0-2.7-1.2-2.7-2.7V66.5h12.1h69.3H97v12.4c0,1.5-1.2,2.7-2.7,2.7H60.9H39.1h-17c-0.8,0-1.5,0.7-1.5,1.5
				c0,0.8,0.7,1.5,1.5,1.5h15.5v8c-4.1,0.1-7.4,3.4-7.4,7.5c0,0.8,0.7,1.5,1.5,1.5h36.5c0.8,0,1.5-0.7,1.5-1.5
				c0-4.1-3.3-7.4-7.4-7.5v-8h31.9c3.2,0,5.7-2.6,5.7-5.7V65V20.5C100,17.4,97.4,14.8,94.3,14.8z M13.6,63.5H3V20.5
				c0-1.5,1.2-2.7,2.7-2.7h7.9V63.5z M82.9,22.1H31.5c-0.8,0-1.5,0.7-1.5,1.5c0,0.8,0.7,1.5,1.5,1.5h51.5v38.4H16.7l0,0V25.1h6.9
				c0.8,0,1.5-0.7,1.5-1.5c0-0.8-0.7-1.5-1.5-1.5h-6.9V4.5c0-0.8,0.7-1.5,1.5-1.5h63.2c0.8,0,1.5,0.7,1.5,1.5L82.9,22.1L82.9,22.1z
				 M40.6,84.6h18.7v8H40.6L40.6,84.6L40.6,84.6z M66.5,98.6H33.5c0.6-1.7,2.3-3,4.2-3h1.4h21.7h1.4C64.2,95.6,65.8,96.9,66.5,98.6z
				"/>
		</g>
	</g>
	<g>
		<g>
			<path class="st0" d="M50.8,69.5c-2.5,0-4.6,2-4.6,4.6c0,2.5,2,4.6,4.6,4.6c2.5,0,4.6-2,4.6-4.6S53.3,69.5,50.8,69.5z M50.8,75.6
				c-0.9,0-1.5-0.7-1.5-1.5c0-0.9,0.7-1.5,1.5-1.5c0.9,0,1.5,0.7,1.5,1.5C52.4,74.9,51.7,75.6,50.8,75.6z"/>
		</g>
	</g>
	<g>
		<g>
			<path class="st0" d="M33.2,15.6l-5-8.6c-0.3-0.5-0.8-0.8-1.3-0.8s-1,0.3-1.3,0.8l-5,8.6c-0.3,0.5-0.3,1,0,1.5s0.8,0.8,1.3,0.8
				h9.9c0.5,0,1-0.3,1.3-0.8C33.5,16.7,33.5,16.1,33.2,15.6z M24.6,14.9l2.4-4.1l2.4,4.1H24.6z"/>
		</g>
	</g>
	<g>
		<g>
			<path class="st0" d="M78.5,30.7H56.6c-0.8,0-1.5,0.7-1.5,1.5c0,0.8,0.7,1.5,1.5,1.5h21.9c0.8,0,1.5-0.7,1.5-1.5
				C80,31.3,79.3,30.7,78.5,30.7z"/>
		</g>
	</g>
	<g>
		<g>
			<path class="st0" d="M78.5,37.3H56.6c-0.8,0-1.5,0.7-1.5,1.5c0,0.8,0.7,1.5,1.5,1.5h21.9c0.8,0,1.5-0.7,1.5-1.5
				C80,38,79.3,37.3,78.5,37.3z"/>
		</g>
	</g>
	<g>
		<g>
			<path class="st0" d="M78.5,43.9H56.6c-0.8,0-1.5,0.7-1.5,1.5c0,0.8,0.7,1.5,1.5,1.5h21.9c0.8,0,1.5-0.7,1.5-1.5
				C80,44.6,79.3,43.9,78.5,43.9z"/>
		</g>
	</g>
	<g>
		<g>
			<path class="st0" d="M78.5,50.6H56.6c-0.8,0-1.5,0.7-1.5,1.5c0,0.8,0.7,1.5,1.5,1.5h21.9c0.8,0,1.5-0.7,1.5-1.5
				C80,51.3,79.3,50.6,78.5,50.6z"/>
		</g>
	</g>
	<g>
		<g>
			<path class="st0" d="M66.8,57.2H56.6c-0.8,0-1.5,0.7-1.5,1.5c0,0.8,0.7,1.5,1.5,1.5h10.2c0.8,0,1.5-0.7,1.5-1.5
				C68.3,57.9,67.7,57.2,66.8,57.2z"/>
		</g>
	</g>
	<g>
		<g>
			<path class="st0" d="M49.8,29.4H22c-0.8,0-1.5,0.7-1.5,1.5v17.8v10c0,0.8,0.7,1.5,1.5,1.5h27.8c0.8,0,1.5-0.7,1.5-1.5v-8.5V30.9
				C51.3,30.1,50.6,29.4,49.8,29.4z M23.5,32.4h24.8l0,0v15.8c-0.2,0-0.3-0.1-0.5-0.1c-2.6-0.3-4.1,0.8-5.4,1.6
				c-0.9,0.6-1.7,1.2-3,1.3c-2.1,0.2-3.5-1-5.2-2.4c-1.9-1.6-4.1-3.4-7.6-3.2c-1,0.1-2.1,0.3-3.1,0.7L23.5,32.4L23.5,32.4z
				 M48.3,57.2L48.3,57.2H23.5v-7.7c1.1-0.6,2.2-1,3.3-1.1c2.3-0.1,3.8,1.1,5.5,2.5c1.9,1.6,4.1,3.4,7.4,3.1
				c2.1-0.2,3.4-1.1,4.5-1.8c1.1-0.8,1.8-1.3,3.3-1.1c0.3,0,0.6,0.1,0.8,0.2V57.2L48.3,57.2z"/>
		</g>
	</g>
	<g>
		<g>
			<path class="st0" d="M39.9,35.8c-2.5,0-4.6,2.1-4.6,4.6c0,2.5,2.1,4.6,4.6,4.6c2.5,0,4.6-2.1,4.6-4.6
				C44.5,37.9,42.4,35.8,39.9,35.8z M39.9,42c-0.9,0-1.6-0.7-1.6-1.6c0-0.9,0.7-1.6,1.6-1.6c0.9,0,1.6,0.7,1.6,1.6
				C41.5,41.3,40.7,42,39.9,42z"/>
		</g>
	</g>
</g>
</svg>
