<?xml version="1.0" encoding="utf-8"?>
<!-- Generator: Adobe Illustrator 25.4.1, SVG Export Plug-In . SVG Version: 6.00 Build 0)  -->
<svg version="1.1" id="Layer_1" xmlns="http://www.w3.org/2000/svg" xmlns:xlink="http://www.w3.org/1999/xlink" x="0px" y="0px"
	 viewBox="0 0 708.8 82.2" style="enable-background:new 0 0 708.8 82.2;" xml:space="preserve">
<style type="text/css">
	.st0{fill:#495057;}
</style>
<path class="st0" d="M56.9,34.3c-1.6-0.5-3.8-1.1-6.7-1.8c-10.8-2.8-15.7-6.1-14.5-10.1c0.7-2.4,2.2-4.4,4.6-5.9
	c2.4-1.5,5.2-2.3,8.4-2.3c3.3,0,5.5,0.8,6.7,2.6c1.2,1.7,1.4,4.2,0.4,7.5l-0.1,0.4h22.1l0.4-1.3c2.2-7.7,1.1-13.5-3.2-17.4
	C70.7,2,63.2,0,52.6,0c-10,0-18.7,2.2-26,6.6c-7.3,4.4-12,10.1-14,17c-1.8,6.4-1.4,11.3,1.3,14.8c2.7,3.5,8.8,6.7,18.5,9.5
	c1.1,0.3,2.6,0.7,4.6,1.3c8.6,2.3,12.3,5.5,11.2,9.6c-0.8,2.8-2.5,5-5.1,6.4c-2.6,1.5-6,2.2-10.3,2.2c-3.6,0-6.1-1-7.7-3.1
	c-1.5-2.1-1.8-4.9-0.7-8.5l0.2-0.5l0,0h-22C0,64,0.9,70.7,5.2,75.3c4.3,4.6,11.9,6.9,22.7,6.9c11.9,0,21.5-2.2,29-6.5
	c7.5-4.3,12.4-10.6,14.7-18.7c1.7-5.9,1.3-10.7-1-14.3C68.2,39,63.7,36.2,56.9,34.3z M77.3,80.8h22L122,1.3h-22L77.3,80.8z
	 M200.6,1.3h-70.2l-4.5,15.8h24.1l-18.2,63.7h22.1L172,17.1h24.1L200.6,1.3z M226.5,16.6h37.2l4.3-15.2h-58.7l-22.7,79.5h59.7
	l4.5-15.9h-38.3l4.9-17H253l4.3-15.1h-35.5L226.5,16.6z M299.8,16.5h33.8l4.3-15.1h-55.8l-22.7,79.5h22l8.8-30.9h31.4l4.3-15h-31.4
	L299.8,16.5z M413.6,10.9c-5.1-7.2-14-10.8-26.8-10.8c-12.8,0-23.9,3.6-33,10.8c-9.2,7.2-15.6,17.2-19.3,30.2
	c-3.7,12.9-3,23,2.1,30.2c5.1,7.2,14,10.9,26.8,10.9c12.8,0,23.8-3.6,33-10.9c9.2-7.3,15.7-17.3,19.3-30.2
	C419.3,28.1,418.6,18.1,413.6,10.9z M392.8,41c-2.3,8.2-5.6,14.4-9.7,18.5c-4.1,4.1-9.2,6.2-15.1,6.2c-5.9,0-9.8-2.1-11.6-6.2
	c-1.8-4.1-1.6-10.3,0.8-18.5c2.3-8.2,5.6-14.4,9.8-18.5c4.2-4.2,9.3-6.2,15.2-6.2c5.9,0,9.8,2.1,11.5,6.2
	C395.4,26.6,395.2,32.8,392.8,41z M495.8,6.5c-4-3.4-10.9-5.2-20.7-5.2h-35.9l-22.7,79.5h21.8l8.8-30.7h8.5c3.4,0,5.7,0.6,7,1.9
	c1.3,1.3,1.8,3.4,1.5,6.4c-0.1,1.2-0.6,4.2-1.4,9.2c-0.9,5-1.5,9.4-1.9,13.3h23.7c0-4.7,0.4-10.1,1.3-16.3c0.9-6.2,1.3-9.9,1.3-11.1
	c0.1-4.2-0.9-7.2-2.9-9c-2-1.8-5.2-2.7-9.6-2.7l0.1-0.4c6.2-0.8,11.4-2.9,15.6-6.2c4.2-3.4,7.1-7.8,8.7-13.3
	C500.8,15,499.8,9.9,495.8,6.5z M476.1,25.6c-1.1,3.7-2.8,6.3-5.2,7.7c-2.4,1.5-6.1,2.2-11.1,2.2h-8.7l0,0l5.5-19.3h9.2
	c4.7,0,7.8,0.7,9.4,2.2C476.8,19.9,477.1,22.3,476.1,25.6z M570.9,1.3l-13.5,47.4c-1.6,5.6-4.2,9.9-7.9,13c-3.7,3.1-8,4.6-13.2,4.6
	c-5.1,0-8.5-1.5-10.3-4.4c-1.8-2.9-1.8-7.3-0.1-13.1l13.5-47.4h-22.3l-13.8,48.3c-3.1,10.7-2.3,18.8,2.2,24.3s12.8,8.2,24.9,8.2
	c12.6,0,22.9-2.7,31.1-8.1c8.2-5.4,13.7-13.2,16.6-23.4l14.1-49.4H570.9z M665.9,1.3L639,52.6l1.3-51.3H606l-22.7,79.5h18.7
	l18.2-63.7l-0.5,63.7h20l35.7-63.6l-18.2,63.6h20.4l22.7-79.5H665.9z M706.4,66.5c-1.6-1.8-3.7-2.7-6.2-2.7c-1.5,0-2.9,0.4-4.3,1.1
	c-1.4,0.7-2.5,1.8-3.4,3.2c-0.9,1.4-1.3,2.9-1.4,4.6c-0.1,2.4,0.7,4.5,2.3,6.3c1.6,1.8,3.7,2.7,6.2,2.7c1.5,0,2.9-0.4,4.3-1.1
	c1.4-0.7,2.5-1.8,3.4-3.2c0.9-1.4,1.3-2.9,1.4-4.6C708.8,70.4,708.1,68.3,706.4,66.5z M705.2,78c-1.5,1.6-3.3,2.3-5.4,2.3
	c-1.9,0-3.6-0.7-5-2.1c-1.5-1.5-2.2-3.3-2.1-5.5c0.1-2,0.8-3.7,2.2-5.2c1.5-1.6,3.3-2.3,5.4-2.3l0,0c1.9,0,3.6,0.7,5,2.1
	c1.5,1.5,2.2,3.3,2.1,5.5C707.3,74.8,706.5,76.5,705.2,78z M701.6,74c-0.2-0.2-0.5-0.4-0.8-0.5c0.8-0.1,1.4-0.3,1.9-0.8
	c0.5-0.5,0.8-1.1,0.8-1.9c0-0.5-0.1-1-0.4-1.5c-0.3-0.4-0.7-0.7-1.2-0.9c-0.5-0.2-1.3-0.3-2.4-0.3l-3.3,0l-0.3,9.7l0,0l1.5,0
	l0.1-4.1l0.9,0c0.5,0,1,0.1,1.2,0.4c0.4,0.3,0.9,1.1,1.5,2.2l0.8,1.5l1.8,0l-1.1-1.9C702.4,75,701.9,74.4,701.6,74z M699.5,72.3
	l-1.9,0h0l0.1-2.9l1.7,0c0.7,0,1.2,0.1,1.5,0.1c0.3,0.1,0.5,0.3,0.7,0.5c0.2,0.2,0.2,0.5,0.2,0.8c0,0.5-0.2,0.8-0.5,1.1
	C701,72.2,700.4,72.3,699.5,72.3z"/>
</svg>
