<svg width="27" height="25" viewBox="0 0 27 25" fill="none" xmlns="http://www.w3.org/2000/svg">
<path d="M26.7513 8.20211C25.2379 6.21773 23.7193 4.23869 22.2006 2.25964C22.0582 2.08361 21.8684 1.94491 21.6575 1.8649C20.007 1.24078 18.3565 0.637996 16.7008 0.035214C16.6797 0.0298796 16.6586 0.019211 16.6375 0.0138766C16.4899 -0.0287983 16.3317 0.0565514 16.2842 0.200579C15.8677 1.39547 14.7498 2.19029 13.5 2.19029C12.2503 2.19029 11.1324 1.39014 10.7159 0.200579C10.6631 0.0458827 10.4997 -0.0341326 10.3467 0.0138766C8.64354 0.637996 6.94033 1.26745 5.23713 1.8969C5.08421 1.96092 4.94711 2.06227 4.84692 2.19563C3.30191 4.20135 1.76217 6.2124 0.227702 8.22345C-0.0939561 8.64486 -0.0781369 8.87958 0.296252 9.24231C1.28759 10.1865 2.27893 11.1307 3.27554 12.0749C3.5972 12.3842 3.87667 12.3842 4.2036 12.0749C4.67818 11.6214 5.15803 11.1627 5.63261 10.7093C5.93317 10.4212 6.23901 10.1385 6.58176 9.81309C6.58704 9.92511 6.59231 9.96778 6.59231 10.0105V24.2212C6.59231 24.8293 6.76105 25 7.36745 25H19.6854C20.2179 25 20.4078 24.8133 20.4078 24.2745C20.4078 19.591 20.4078 14.9074 20.4078 10.2238V9.80242C20.5343 9.91978 20.6082 9.98912 20.682 10.0585C21.3833 10.7306 22.0899 11.3974 22.7912 12.0642C23.1181 12.3736 23.3976 12.3736 23.7193 12.0695C24.7053 11.1307 25.6914 10.1918 26.6775 9.25298C27.0888 8.86891 27.0993 8.65553 26.7513 8.20211Z" fill="#5C5C5C"/>
</svg>
