<?xml version="1.0" encoding="utf-8"?>
<!-- Generator: Adobe Illustrator 25.4.1, SVG Export Plug-In . SVG Version: 6.00 Build 0)  -->
<svg version="1.1" id="Layer_1" xmlns="http://www.w3.org/2000/svg" xmlns:xlink="http://www.w3.org/1999/xlink" x="0px" y="0px"
	 viewBox="0 0 81 76" style="enable-background:new 0 0 81 76;" xml:space="preserve">
<style type="text/css">
	.st0{fill:#FFFFFF;}
</style>
<path class="st0" d="M80.2,42.4l-2.4-5l2-4.9c0.1-0.1,0.1-0.3,0.1-0.4c0-0.2-0.1-0.3-0.2-0.4c-0.1-0.1-0.2-0.2-0.3-0.3
	c-0.1-0.1-0.3-0.1-0.4-0.1H68.8l-3.2,4.4H40.9c-0.3-0.7-0.9-1.2-1.5-1.5c-0.7-0.3-1.4-0.5-2.1-0.3c-0.7,0.1-1.4,0.5-1.9,1
	c-0.5,0.5-0.8,1.2-0.9,2s0.1,1.5,0.5,2.1c0.4,0.6,1,1.1,1.6,1.4c0.7,0.3,1.4,0.3,2.2,0.1c0.7-0.2,1.3-0.6,1.8-1.2h25l2.7,4.5h11
	c0.2,0,0.3,0,0.5-0.1c0.2-0.1,0.3-0.2,0.4-0.3c0.1-0.1,0.2-0.3,0.2-0.5C80.3,42.7,80.2,42.6,80.2,42.4z M70.3,40.2l-1.6-2.6l2-2.7
	H75l-1.1,2.6l1.3,2.6L70.3,40.2z M37.5,26.4c2.1,0,4.1,0.6,5.9,1.7s3.2,2.7,4.1,4.6h3.9c-1.1-3.3-3.4-6-6.4-7.8
	c-3-1.8-6.5-2.4-9.9-1.8s-6.5,2.3-8.8,5c-2.2,2.6-3.5,6-3.5,9.5c0,3.5,1.2,6.8,3.5,9.5c2.2,2.6,5.3,4.4,8.8,5
	c3.4,0.6,6.9-0.1,9.9-1.8c3-1.8,5.2-4.5,6.4-7.8h-3.9c-0.9,1.8-2.2,3.3-3.8,4.4c-1.6,1.1-3.5,1.7-5.5,1.8c-2,0.1-3.9-0.3-5.7-1.2
	c-1.8-0.9-3.2-2.3-4.3-3.9c-1.1-1.7-1.6-3.6-1.7-5.6c-0.1-2,0.4-3.9,1.4-5.7c1-1.7,2.3-3.2,4-4.2C33.6,27,35.5,26.4,37.5,26.4z
	 M59.8,32.7h3.7c-1.2-6.5-4.8-12.3-10-16.3c-5.3-4-11.8-5.9-18.4-5.3s-12.7,3.6-17.1,8.5S11,30.9,11,37.5s2.5,13,6.9,17.8
	s10.6,7.9,17.1,8.5c6.6,0.6,13.1-1.3,18.4-5.3c5.3-4,8.8-9.8,10-16.3h-3.7c-1.2,5.5-4.4,10.4-8.9,13.7c-4.6,3.3-10.2,4.8-15.8,4.2
	c-5.6-0.6-10.8-3.2-14.6-7.4c-3.8-4.2-5.9-9.6-5.9-15.3s2.1-11.1,5.9-15.3c3.8-4.2,9-6.9,14.6-7.4c5.6-0.6,11.3,0.9,15.8,4.2
	C55.5,22.3,58.7,27.2,59.8,32.7z M37.5,71.4c-6.3,0-12.5-1.8-17.9-5.1C14.3,63,9.9,58.3,7.1,52.6s-4-12-3.4-18.3
	c0.6-6.3,2.9-12.3,6.7-17.3c3.8-5,8.9-8.9,14.8-11.2C31.2,3.6,37.6,3,43.8,4.2c6.2,1.2,12,4,16.6,8.3c4.7,4.3,8,9.7,9.7,15.8h3.7
	c-2.2-8.9-7.7-16.6-15.2-21.7c-7.5-5.2-16.7-7.4-25.8-6.2C23.8,1.4,15.4,5.8,9.4,12.7C3.3,19.5,0,28.4,0,37.5s3.3,18,9.4,24.8
	c6,6.9,14.4,11.3,23.5,12.4c9.1,1.1,18.2-1.1,25.8-6.2c7.5-5.2,13-12.9,15.2-21.7h-3.7c-2,7.1-6.3,13.3-12.2,17.8
	S44.9,71.4,37.5,71.4z"/>
</svg>
