<svg width="28" height="30" viewBox="0 0 28 30" fill="none" xmlns="http://www.w3.org/2000/svg">
<path d="M18.6314 14.6207C19.9695 13.5721 20.9478 12.1311 21.4297 10.4986C21.9116 8.86615 21.8733 7.12366 21.3199 5.5141C20.7666 3.90455 19.7259 2.50819 18.3429 1.51973C16.96 0.531271 15.3037 0 13.6051 0C11.9065 0 10.2502 0.531271 8.86727 1.51973C7.4843 2.50819 6.44359 3.90455 5.89026 5.5141C5.33693 7.12366 5.29856 8.86615 5.7805 10.4986C6.26244 12.1311 7.24067 13.5721 8.57877 14.6207C6.0512 15.6287 3.88298 17.3727 2.35386 19.6276C0.824734 21.8826 0.0048554 24.545 1.49449e-07 27.2714V28.6342C-8.35927e-05 28.8133 0.0350264 28.9905 0.103324 29.156C0.171622 29.3214 0.271769 29.4717 0.398044 29.5983C0.52432 29.7249 0.674249 29.8254 0.839266 29.8939C1.00428 29.9624 1.18116 29.9977 1.35978 29.9977H25.8396C26.0182 29.9977 26.1951 29.9624 26.3601 29.8939C26.5251 29.8254 26.675 29.7249 26.8013 29.5983C26.9276 29.4717 27.0277 29.3214 27.096 29.156C27.1643 28.9905 27.1994 28.8133 27.1994 28.6342V27.2714C27.1955 24.5462 26.3772 21.8847 24.8501 19.6299C23.323 17.3751 21.157 15.6304 18.6314 14.6207ZM8.15994 8.18869C8.16006 7.11042 8.47921 6.05641 9.07701 5.15993C9.67481 4.26345 10.5244 3.56476 11.5184 3.15221C12.5124 2.73967 13.6062 2.63179 14.6613 2.84223C15.7165 3.05266 16.6857 3.57196 17.4464 4.33445C18.2071 5.09694 18.7251 6.06839 18.935 7.12594C19.1448 8.18349 19.037 9.27966 18.6253 10.2758C18.2136 11.272 17.5163 12.1234 16.6218 12.7225C15.7272 13.3215 14.6755 13.6413 13.5997 13.6413C12.8853 13.6413 12.1779 13.5002 11.5178 13.2262C10.8578 12.9522 10.2581 12.5505 9.75298 12.0442C9.24784 11.5379 8.84717 10.9368 8.57383 10.2752C8.30049 9.61371 8.15985 8.9047 8.15994 8.18869ZM2.71955 27.2714C2.71955 24.3794 3.86585 21.6057 5.90627 19.5608C7.94669 17.5158 10.7141 16.3669 13.5997 16.3669C16.4853 16.3669 19.2527 17.5158 21.2931 19.5608C23.3335 21.6057 24.4798 24.3794 24.4798 27.2714H2.71955Z" fill="#858585"/>
</svg>
