<svg width="214" height="54" viewBox="0 0 214 54" fill="none" xmlns="http://www.w3.org/2000/svg">
<g clip-path="url(#clip0_4_104)">
<path d="M0 16C0 7.16344 7.16344 0 16 0H46C54.8366 0 62 7.16344 62 16V38C62 46.8366 54.8366 54 46 54H16C7.16344 54 0 46.8366 0 38V16Z" fill="#22C55E"/>
<path d="M21.8201 26.76C23.0001 26.98 23.9701 27.57 24.7301 28.53C25.4901 29.49 25.8701 30.59 25.8701 31.83C25.8701 32.95 25.5901 33.94 25.0301 34.8C24.4901 35.64 23.7001 36.3 22.6601 36.78C21.6201 37.26 20.3901 37.5 18.9701 37.5H9.94012V16.56H18.5801C20.0001 16.56 21.2201 16.79 22.2401 17.25C23.2801 17.71 24.0601 18.35 24.5801 19.17C25.1201 19.99 25.3901 20.92 25.3901 21.96C25.3901 23.18 25.0601 24.2 24.4001 25.02C23.7601 25.84 22.9001 26.42 21.8201 26.76ZM14.1401 25.2H17.9801C18.9801 25.2 19.7501 24.98 20.2901 24.54C20.8301 24.08 21.1001 23.43 21.1001 22.59C21.1001 21.75 20.8301 21.1 20.2901 20.64C19.7501 20.18 18.9801 19.95 17.9801 19.95H14.1401V25.2ZM18.3701 34.08C19.3901 34.08 20.1801 33.84 20.7401 33.36C21.3201 32.88 21.6101 32.2 21.6101 31.32C21.6101 30.42 21.3101 29.72 20.7101 29.22C20.1101 28.7 19.3001 28.44 18.2801 28.44H14.1401V34.08H18.3701ZM52.0475 16.56V37.5H47.8475V23.88L42.2375 37.5H39.0575L33.4175 23.88V37.5H29.2175V16.56H33.9875L40.6475 32.13L47.3075 16.56H52.0475Z" fill="#F8FAFF"/>
<path d="M84.16 26.408C85.104 26.584 85.88 27.056 86.488 27.824C87.096 28.592 87.4 29.472 87.4 30.464C87.4 31.36 87.176 32.152 86.728 32.84C86.296 33.512 85.664 34.04 84.832 34.424C84 34.808 83.016 35 81.88 35H74.656V18.248H81.568C82.704 18.248 83.68 18.432 84.496 18.8C85.328 19.168 85.952 19.68 86.368 20.336C86.8 20.992 87.016 21.736 87.016 22.568C87.016 23.544 86.752 24.36 86.224 25.016C85.712 25.672 85.024 26.136 84.16 26.408ZM78.016 25.16H81.088C81.888 25.16 82.504 24.984 82.936 24.632C83.368 24.264 83.584 23.744 83.584 23.072C83.584 22.4 83.368 21.88 82.936 21.512C82.504 21.144 81.888 20.96 81.088 20.96H78.016V25.16ZM81.4 32.264C82.216 32.264 82.848 32.072 83.296 31.688C83.76 31.304 83.992 30.76 83.992 30.056C83.992 29.336 83.752 28.776 83.272 28.376C82.792 27.96 82.144 27.752 81.328 27.752H78.016V32.264H81.4ZM102.63 21.704V35H99.2459V33.32C98.8139 33.896 98.2459 34.352 97.5419 34.688C96.8539 35.008 96.1019 35.168 95.2859 35.168C94.2459 35.168 93.3259 34.952 92.5259 34.52C91.7259 34.072 91.0939 33.424 90.6299 32.576C90.1819 31.712 89.9579 30.688 89.9579 29.504V21.704H93.3179V29.024C93.3179 30.08 93.5819 30.896 94.1099 31.472C94.6379 32.032 95.3579 32.312 96.2699 32.312C97.1979 32.312 97.9259 32.032 98.4539 31.472C98.9819 30.896 99.2459 30.08 99.2459 29.024V21.704H102.63ZM105.081 28.304C105.081 26.96 105.345 25.768 105.873 24.728C106.417 23.688 107.153 22.888 108.081 22.328C109.009 21.768 110.041 21.488 111.177 21.488C112.041 21.488 112.865 21.68 113.649 22.064C114.433 22.432 115.057 22.928 115.521 23.552V17.24H118.929V35H115.521V33.032C115.105 33.688 114.521 34.216 113.769 34.616C113.017 35.016 112.145 35.216 111.153 35.216C110.033 35.216 109.009 34.928 108.081 34.352C107.153 33.776 106.417 32.968 105.873 31.928C105.345 30.872 105.081 29.664 105.081 28.304ZM115.545 28.352C115.545 27.536 115.385 26.84 115.065 26.264C114.745 25.672 114.313 25.224 113.769 24.92C113.225 24.6 112.641 24.44 112.017 24.44C111.393 24.44 110.817 24.592 110.289 24.896C109.761 25.2 109.329 25.648 108.993 26.24C108.673 26.816 108.513 27.504 108.513 28.304C108.513 29.104 108.673 29.808 108.993 30.416C109.329 31.008 109.761 31.464 110.289 31.784C110.833 32.104 111.409 32.264 112.017 32.264C112.641 32.264 113.225 32.112 113.769 31.808C114.313 31.488 114.745 31.04 115.065 30.464C115.385 29.872 115.545 29.168 115.545 28.352ZM127.419 21.488C128.411 21.488 129.283 21.688 130.035 22.088C130.787 22.472 131.379 22.976 131.811 23.6V21.704H135.195V35.096C135.195 36.328 134.947 37.424 134.451 38.384C133.955 39.36 133.211 40.128 132.219 40.688C131.227 41.264 130.027 41.552 128.619 41.552C126.731 41.552 125.179 41.112 123.963 40.232C122.763 39.352 122.083 38.152 121.923 36.632H125.259C125.435 37.24 125.811 37.72 126.387 38.072C126.979 38.44 127.691 38.624 128.523 38.624C129.499 38.624 130.291 38.328 130.899 37.736C131.507 37.16 131.811 36.28 131.811 35.096V33.032C131.379 33.656 130.779 34.176 130.011 34.592C129.259 35.008 128.395 35.216 127.419 35.216C126.299 35.216 125.275 34.928 124.347 34.352C123.419 33.776 122.683 32.968 122.139 31.928C121.611 30.872 121.347 29.664 121.347 28.304C121.347 26.96 121.611 25.768 122.139 24.728C122.683 23.688 123.411 22.888 124.323 22.328C125.251 21.768 126.283 21.488 127.419 21.488ZM131.811 28.352C131.811 27.536 131.651 26.84 131.331 26.264C131.011 25.672 130.579 25.224 130.035 24.92C129.491 24.6 128.907 24.44 128.283 24.44C127.659 24.44 127.083 24.592 126.555 24.896C126.027 25.2 125.595 25.648 125.259 26.24C124.939 26.816 124.779 27.504 124.779 28.304C124.779 29.104 124.939 29.808 125.259 30.416C125.595 31.008 126.027 31.464 126.555 31.784C127.099 32.104 127.675 32.264 128.283 32.264C128.907 32.264 129.491 32.112 130.035 31.808C130.579 31.488 131.011 31.04 131.331 30.464C131.651 29.872 131.811 29.168 131.811 28.352ZM150.836 28.064C150.836 28.544 150.804 28.976 150.74 29.36H141.02C141.1 30.32 141.436 31.072 142.028 31.616C142.62 32.16 143.348 32.432 144.212 32.432C145.46 32.432 146.348 31.896 146.876 30.824H150.5C150.116 32.104 149.38 33.16 148.292 33.992C147.204 34.808 145.868 35.216 144.284 35.216C143.004 35.216 141.852 34.936 140.828 34.376C139.82 33.8 139.028 32.992 138.452 31.952C137.892 30.912 137.612 29.712 137.612 28.352C137.612 26.976 137.892 25.768 138.452 24.728C139.012 23.688 139.796 22.888 140.804 22.328C141.812 21.768 142.972 21.488 144.284 21.488C145.548 21.488 146.676 21.76 147.668 22.304C148.676 22.848 149.452 23.624 149.996 24.632C150.556 25.624 150.836 26.768 150.836 28.064ZM147.356 27.104C147.34 26.24 147.028 25.552 146.42 25.04C145.812 24.512 145.068 24.248 144.188 24.248C143.356 24.248 142.652 24.504 142.076 25.016C141.516 25.512 141.172 26.208 141.044 27.104H147.356ZM157.201 24.464V30.896C157.201 31.344 157.305 31.672 157.513 31.88C157.737 32.072 158.105 32.168 158.617 32.168H160.177V35H158.065C155.233 35 153.817 33.624 153.817 30.872V24.464H152.233V21.704H153.817V18.416H157.201V21.704H160.177V24.464H157.201ZM176.49 18.248V35H173.13V27.872H165.954V35H162.594V18.248H165.954V25.136H173.13V18.248H176.49ZM181.501 20.12C180.909 20.12 180.413 19.936 180.013 19.568C179.629 19.184 179.437 18.712 179.437 18.152C179.437 17.592 179.629 17.128 180.013 16.76C180.413 16.376 180.909 16.184 181.501 16.184C182.093 16.184 182.581 16.376 182.965 16.76C183.365 17.128 183.565 17.592 183.565 18.152C183.565 18.712 183.365 19.184 182.965 19.568C182.581 19.936 182.093 20.12 181.501 20.12ZM183.157 21.704V35H179.797V21.704H183.157ZM192.02 31.904L195.38 21.704H198.956L194.036 35H189.956L185.06 21.704H188.66L192.02 31.904ZM213.204 28.064C213.204 28.544 213.172 28.976 213.108 29.36H203.388C203.468 30.32 203.804 31.072 204.396 31.616C204.988 32.16 205.716 32.432 206.58 32.432C207.828 32.432 208.716 31.896 209.244 30.824H212.868C212.484 32.104 211.748 33.16 210.66 33.992C209.572 34.808 208.236 35.216 206.652 35.216C205.372 35.216 204.22 34.936 203.196 34.376C202.188 33.8 201.396 32.992 200.82 31.952C200.26 30.912 199.979 29.712 199.979 28.352C199.979 26.976 200.26 25.768 200.82 24.728C201.38 23.688 202.164 22.888 203.172 22.328C204.18 21.768 205.34 21.488 206.652 21.488C207.916 21.488 209.044 21.76 210.036 22.304C211.044 22.848 211.82 23.624 212.364 24.632C212.924 25.624 213.204 26.768 213.204 28.064ZM209.724 27.104C209.708 26.24 209.396 25.552 208.788 25.04C208.18 24.512 207.436 24.248 206.556 24.248C205.724 24.248 205.02 24.504 204.444 25.016C203.884 25.512 203.54 26.208 203.412 27.104H209.724Z" fill="#312E81"/>
</g>
<defs>
<clipPath id="clip0_4_104">
<rect width="214" height="54" fill="white"/>
</clipPath>
</defs>
</svg>
