<svg width="32" height="32" viewBox="0 0 32 32" fill="none" xmlns="http://www.w3.org/2000/svg">
<path d="M8.8 22.4C9.43652 22.4 10.047 22.1471 10.4971 21.6971C10.9471 21.247 11.2 20.6365 11.2 20C11.206 19.9201 11.206 19.8399 11.2 19.76L15.664 15.296H16.4L18.976 17.872V18C18.976 18.6365 19.2289 19.247 19.6789 19.6971C20.129 20.1471 20.7395 20.4 21.376 20.4C22.0125 20.4 22.623 20.1471 23.0731 19.6971C23.5231 19.247 23.776 18.6365 23.776 18V17.872L29.6 12C30.0747 12 30.5387 11.8592 30.9334 11.5955C31.328 11.3318 31.6357 10.957 31.8173 10.5184C31.999 10.0799 32.0465 9.59734 31.9539 9.13178C31.8613 8.66623 31.6327 8.23859 31.2971 7.90294C30.9614 7.5673 30.5338 7.33872 30.0682 7.24612C29.6027 7.15351 29.1201 7.20104 28.6816 7.38269C28.243 7.56434 27.8682 7.87195 27.6045 8.26663C27.3408 8.66131 27.2 9.12532 27.2 9.6C27.194 9.67989 27.194 9.76011 27.2 9.84L21.424 15.616H21.168L18.4 12.8C18.4 12.1635 18.1471 11.553 17.6971 11.1029C17.247 10.6529 16.6365 10.4 16 10.4C15.3635 10.4 14.753 10.6529 14.3029 11.1029C13.8529 11.553 13.6 12.1635 13.6 12.8L8.8 17.6C8.16348 17.6 7.55303 17.8529 7.10294 18.3029C6.65286 18.753 6.4 19.3635 6.4 20C6.4 20.6365 6.65286 21.247 7.10294 21.6971C7.55303 22.1471 8.16348 22.4 8.8 22.4ZM30.4 28.8H3.2V1.6C3.2 1.17565 3.03143 0.768687 2.73137 0.468629C2.43131 0.168571 2.02435 0 1.6 0C1.17565 0 0.768687 0.168571 0.468629 0.468629C0.168571 0.768687 0 1.17565 0 1.6V30.4C0 30.8243 0.168571 31.2313 0.468629 31.5314C0.768687 31.8314 1.17565 32 1.6 32H30.4C30.8243 32 31.2313 31.8314 31.5314 31.5314C31.8314 31.2313 32 30.8243 32 30.4C32 29.9757 31.8314 29.5687 31.5314 29.2686C31.2313 28.9686 30.8243 28.8 30.4 28.8Z" fill="#22C55E"/>
</svg>
