<svg width="32" height="32" viewBox="0 0 32 32" fill="none" xmlns="http://www.w3.org/2000/svg">
<path d="M8.92922 32C9.65526 32 10.149 31.5975 11.02 30.7627L16.044 26.0147H25.3505C29.6769 26.0147 32 23.4628 32 18.9306V7.0834C32 2.55184 29.6769 0 25.3505 0H6.64953C2.33793 0 0 2.53667 0 7.0834V18.9306C0 23.478 2.33731 26.0147 6.64953 26.0147H7.34645V30.0355C7.34645 31.2266 7.92752 32 8.92922 32ZM9.52393 29.1697V24.6843C9.52393 23.8495 9.23401 23.5242 8.4355 23.5242H6.66378C3.7169 23.5242 2.33731 21.9312 2.33731 18.9155V7.0834C2.33731 4.06764 3.7169 2.49047 6.6644 2.49047H25.3505C28.2831 2.49047 29.6621 4.06764 29.6621 7.0834V18.9155C29.6621 21.9312 28.2831 23.5242 25.3505 23.5242H15.9418C15.1433 23.5242 14.7226 23.6483 14.17 24.2514L9.52393 29.1697ZM9.33561 12.2801C9.33561 13.9814 10.3231 15.2959 11.9201 15.2959C12.5012 15.2959 13.0816 15.1883 13.4446 14.7086H13.5611C13.0383 15.9307 11.9783 16.7193 11.0633 16.9668C10.5411 17.1212 10.3813 17.3693 10.3813 17.7243C10.3813 18.111 10.6712 18.4053 11.0782 18.4053C12.5012 18.4053 15.3322 16.6104 15.3322 12.8371C15.3322 10.8112 14.0982 9.2492 12.2831 9.2492C10.5987 9.2492 9.33561 10.5017 9.33561 12.2801ZM16.8859 12.2801C16.8859 13.9814 17.8727 15.2959 19.4703 15.2959C20.0508 15.2959 20.6319 15.1883 20.9943 14.7086H21.1107C20.5879 15.9307 19.528 16.7193 18.6136 16.9668C18.0908 17.1212 17.9309 17.3693 17.9309 17.7243C17.9309 18.111 18.2215 18.4053 18.6278 18.4053C20.0508 18.4053 22.8961 16.6104 22.8961 12.8371C22.8961 10.8112 21.6478 9.2492 19.8334 9.2492C18.1484 9.2492 16.8859 10.5017 16.8859 12.2801Z" fill="#818CF8"/>
</svg>
