<svg width="34" height="34" viewBox="0 0 34 34" fill="none" xmlns="http://www.w3.org/2000/svg">
<path d="M7.1499 8.75H13.5499" stroke="#22C55E" stroke-width="1.5" stroke-linecap="round" stroke-linejoin="round"/>
<path d="M32.75 13.75C32.75 13.596 32.75 12.684 32.7468 12.62C32.6892 11.618 32.0028 10.82 31.1388 10.754C31.0844 10.75 31.0188 10.75 30.8844 10.75H26.7212C23.8636 10.75 21.55 13.436 21.55 16.75C21.55 20.064 23.8652 22.75 26.718 22.75H30.8828C31.0172 22.75 31.0828 22.75 31.1388 22.746C32.0028 22.68 32.6908 21.882 32.7468 20.88C32.75 20.816 32.75 19.904 32.75 19.75" stroke="#22C55E" stroke-width="1.5" stroke-linecap="round"/>
<path d="M26.35 18.75C27.2337 18.75 27.95 17.8546 27.95 16.75C27.95 15.6454 27.2337 14.75 26.35 14.75C25.4663 14.75 24.75 15.6454 24.75 16.75C24.75 17.8546 25.4663 18.75 26.35 18.75Z" fill="#22C55E"/>
<path d="M18.35 0.75C24.3836 0.75 27.4012 0.75 29.2748 3.094C30.5692 4.71 30.9708 7.006 31.094 10.75M13.55 32.75H18.35C24.3836 32.75 27.4012 32.75 29.2748 30.406C30.5692 28.79 30.9708 26.494 31.094 22.75M11.95 0.75C6.9676 0.77 4.326 0.966 2.6252 3.094C0.75 5.436 0.75 9.208 0.75 16.75C0.75 24.292 0.75 28.064 2.6252 30.406C3.67 31.714 5.07 32.292 7.15 32.546" stroke="#22C55E" stroke-width="1.5" stroke-linecap="round"/>
</svg>
